<svg width="129" height="31" viewBox="0 0 129 31" fill="none" xmlns="http://www.w3.org/2000/svg">
<g clip-path="url(#clip0_127_90)">
<rect width="30.3524" height="30.3524" fill="#D3F4E0"/>
<path d="M24.5393 30.3481C24.881 30.3488 25.2219 30.3488 25.5636 30.3488C27.0876 30.3488 28.6115 30.3466 30.1363 30.3525C30.3031 30.3525 30.3638 30.3064 30.3514 30.1366C30.3199 29.7182 30.3265 29.2954 30.2702 28.8806C30.1011 27.6362 29.698 26.4664 29.0461 25.391C28.0533 23.7538 26.7356 22.4721 24.9293 21.761C23.6613 21.2621 22.3678 21.1802 21.0816 21.6945C19.9769 22.1363 19.2225 22.9074 18.916 24.0874C18.7309 24.7992 18.7411 25.5256 18.7272 26.2469C18.7024 27.533 18.7199 28.8191 18.7206 30.1052C18.7206 30.3473 18.7214 30.3481 18.9614 30.3481C20.8204 30.3481 22.6802 30.3481 24.5393 30.3481ZM5.81469 30.3481C7.66791 30.3481 9.52186 30.3481 11.3751 30.3481C11.6268 30.3481 11.6282 30.3473 11.6268 30.0993C11.618 28.637 11.6165 27.1746 11.5938 25.7122C11.5865 25.2579 11.5536 24.7985 11.479 24.3507C11.2609 23.0383 10.4715 22.1744 9.26067 21.693C7.86765 21.1385 6.48925 21.2906 5.14232 21.8722C4.12682 22.3104 3.26057 22.9652 2.51431 23.7779C0.874726 25.5673 0.0172558 27.6706 -0.000303296 30.1059C-0.00176656 30.3473 -0.000303294 30.3481 0.236013 30.3481C2.09582 30.3481 3.95489 30.3481 5.81469 30.3481ZM0.0333517 0.01835C6.86312 3.70321 11.1775 9.28282 12.9708 16.8128C12.9876 16.6313 12.9883 16.4528 12.9876 16.2743C12.9752 14.2516 12.9678 12.2288 12.9481 10.206C12.9378 9.16357 12.834 8.12915 12.6649 7.09984C12.5164 6.1971 12.3042 5.31264 11.9977 4.45087C11.4343 2.86851 10.5886 1.44855 9.52771 0.150762C9.44138 0.0461493 9.35724 6.10352e-05 9.22116 6.10352e-05C6.22221 0.00371883 3.22326 0.00298727 0.224307 0.00371883C0.16724 0.00371883 0.110904 0.0124975 0.0326201 0.0190816L0.0333517 0.01835ZM30.3089 0.0234709C30.2445 0.0146922 30.1992 0.00298727 30.1531 0.00298727C27.1366 0.00225571 24.1193 0.00152415 21.1028 0.00810819C21.0158 0.00810819 20.9024 0.0651698 20.846 0.133205C19.1033 2.21376 18.0461 4.60303 17.6459 7.28493C17.4535 8.57613 17.3744 9.87611 17.3642 11.1798C17.3496 12.9896 17.3598 14.7995 17.3598 16.6094C17.3598 16.6767 17.3598 16.744 17.3598 16.8113C19.1721 9.28428 23.4821 3.70834 30.3089 0.0234709ZM19.0835 18.3995C19.0974 18.4105 19.1113 18.4215 19.1252 18.4324C19.1545 18.4149 19.186 18.4002 19.213 18.3798C20.5431 17.387 22.0261 16.7762 23.6767 16.5706C24.6951 16.4433 25.7055 16.4726 26.7086 16.6884C28.065 16.9803 29.1647 17.6855 30.0258 18.7689C30.1202 18.8875 30.2109 19.0096 30.3287 19.1625V8.97629C27.0663 9.64787 24.3198 11.1805 22.0744 13.6027C20.7692 15.0102 19.7742 16.6123 19.0835 18.3995ZM11.2258 18.4332L11.2631 18.4039C10.8454 17.2875 10.285 16.2429 9.60307 15.264C7.86911 12.7753 5.59813 10.9515 2.79013 9.80223C1.89754 9.43718 0.977154 9.16357 0.0238405 8.9858V19.1581C0.199432 18.9321 0.339905 18.7338 0.498668 18.5509C1.57343 17.3161 2.95256 16.6855 4.56434 16.537C5.52716 16.4477 6.48486 16.4923 7.43452 16.6957C8.52904 16.9298 9.55113 17.338 10.4942 17.9401C10.7422 18.0981 10.9829 18.2693 11.2273 18.4339L11.2258 18.4332Z" fill="white"/>
<path d="M24.5395 30.348C22.6804 30.348 20.8206 30.348 18.9615 30.348C18.7216 30.348 18.7208 30.3465 18.7208 30.1051C18.7208 28.819 18.7025 27.5322 18.7274 26.2468C18.7413 25.5255 18.7311 24.7991 18.9162 24.0873C19.2227 22.9073 19.977 22.1362 21.0818 21.6943C22.368 21.1801 23.6615 21.262 24.9294 21.7609C26.7358 22.472 28.0535 23.7537 29.0463 25.3909C29.6982 26.4663 30.1013 27.6353 30.2703 28.8805C30.3267 29.2952 30.3201 29.7181 30.3516 30.1365C30.3647 30.3063 30.304 30.3531 30.1365 30.3523C28.6125 30.3465 27.0885 30.3487 25.5638 30.3487C25.2221 30.3487 24.8812 30.3487 24.5395 30.3487V30.348Z" fill="#00481D"/>
<path d="M24.5395 30.348C22.6804 30.348 20.8206 30.348 18.9615 30.348C18.7216 30.348 18.7208 30.3465 18.7208 30.1051C18.7208 28.819 18.7025 27.5322 18.7274 26.2468C18.7413 25.5255 18.7311 24.7991 18.9162 24.0873C19.2227 22.9073 19.977 22.1362 21.0818 21.6943C22.368 21.1801 23.6615 21.262 24.9294 21.7609C26.7358 22.472 28.0535 23.7537 29.0463 25.3909C29.6982 26.4663 30.1013 27.6353 30.2703 28.8805C30.3267 29.2952 30.3201 29.7181 30.3516 30.1365C30.3647 30.3063 30.304 30.3531 30.1365 30.3523C28.6125 30.3465 27.0885 30.3487 25.5638 30.3487C25.2221 30.3487 24.8812 30.3487 24.5395 30.3487V30.348Z" fill="black" fill-opacity="0.2"/>
<path d="M24.5395 30.348C22.6804 30.348 20.8206 30.348 18.9615 30.348C18.7216 30.348 18.7208 30.3465 18.7208 30.1051C18.7208 28.819 18.7025 27.5322 18.7274 26.2468C18.7413 25.5255 18.7311 24.7991 18.9162 24.0873C19.2227 22.9073 19.977 22.1362 21.0818 21.6943C22.368 21.1801 23.6615 21.262 24.9294 21.7609C26.7358 22.472 28.0535 23.7537 29.0463 25.3909C29.6982 26.4663 30.1013 27.6353 30.2703 28.8805C30.3267 29.2952 30.3201 29.7181 30.3516 30.1365C30.3647 30.3063 30.304 30.3531 30.1365 30.3523C28.6125 30.3465 27.0885 30.3487 25.5638 30.3487C25.2221 30.3487 24.8812 30.3487 24.5395 30.3487V30.348Z" fill="black" fill-opacity="0.2"/>
<path d="M24.5395 30.348C22.6804 30.348 20.8206 30.348 18.9615 30.348C18.7216 30.348 18.7208 30.3465 18.7208 30.1051C18.7208 28.819 18.7025 27.5322 18.7274 26.2468C18.7413 25.5255 18.7311 24.7991 18.9162 24.0873C19.2227 22.9073 19.977 22.1362 21.0818 21.6943C22.368 21.1801 23.6615 21.262 24.9294 21.7609C26.7358 22.472 28.0535 23.7537 29.0463 25.3909C29.6982 26.4663 30.1013 27.6353 30.2703 28.8805C30.3267 29.2952 30.3201 29.7181 30.3516 30.1365C30.3647 30.3063 30.304 30.3531 30.1365 30.3523C28.6125 30.3465 27.0885 30.3487 25.5638 30.3487C25.2221 30.3487 24.8812 30.3487 24.5395 30.3487V30.348Z" fill="black" fill-opacity="0.2"/>
<path d="M24.5395 30.348C22.6804 30.348 20.8206 30.348 18.9615 30.348C18.7216 30.348 18.7208 30.3465 18.7208 30.1051C18.7208 28.819 18.7025 27.5322 18.7274 26.2468C18.7413 25.5255 18.7311 24.7991 18.9162 24.0873C19.2227 22.9073 19.977 22.1362 21.0818 21.6943C22.368 21.1801 23.6615 21.262 24.9294 21.7609C26.7358 22.472 28.0535 23.7537 29.0463 25.3909C29.6982 26.4663 30.1013 27.6353 30.2703 28.8805C30.3267 29.2952 30.3201 29.7181 30.3516 30.1365C30.3647 30.3063 30.304 30.3531 30.1365 30.3523C28.6125 30.3465 27.0885 30.3487 25.5638 30.3487C25.2221 30.3487 24.8812 30.3487 24.5395 30.3487V30.348Z" fill="black" fill-opacity="0.2"/>
<path d="M24.5395 30.348C22.6804 30.348 20.8206 30.348 18.9615 30.348C18.7216 30.348 18.7208 30.3465 18.7208 30.1051C18.7208 28.819 18.7025 27.5322 18.7274 26.2468C18.7413 25.5255 18.7311 24.7991 18.9162 24.0873C19.2227 22.9073 19.977 22.1362 21.0818 21.6943C22.368 21.1801 23.6615 21.262 24.9294 21.7609C26.7358 22.472 28.0535 23.7537 29.0463 25.3909C29.6982 26.4663 30.1013 27.6353 30.2703 28.8805C30.3267 29.2952 30.3201 29.7181 30.3516 30.1365C30.3647 30.3063 30.304 30.3531 30.1365 30.3523C28.6125 30.3465 27.0885 30.3487 25.5638 30.3487C25.2221 30.3487 24.8812 30.3487 24.5395 30.3487V30.348Z" fill="black" fill-opacity="0.2"/>
<path d="M24.5395 30.348C22.6804 30.348 20.8206 30.348 18.9615 30.348C18.7216 30.348 18.7208 30.3465 18.7208 30.1051C18.7208 28.819 18.7025 27.5322 18.7274 26.2468C18.7413 25.5255 18.7311 24.7991 18.9162 24.0873C19.2227 22.9073 19.977 22.1362 21.0818 21.6943C22.368 21.1801 23.6615 21.262 24.9294 21.7609C26.7358 22.472 28.0535 23.7537 29.0463 25.3909C29.6982 26.4663 30.1013 27.6353 30.2703 28.8805C30.3267 29.2952 30.3201 29.7181 30.3516 30.1365C30.3647 30.3063 30.304 30.3531 30.1365 30.3523C28.6125 30.3465 27.0885 30.3487 25.5638 30.3487C25.2221 30.3487 24.8812 30.3487 24.5395 30.3487V30.348Z" fill="black" fill-opacity="0.2"/>
<path d="M24.5395 30.348C22.6804 30.348 20.8206 30.348 18.9615 30.348C18.7216 30.348 18.7208 30.3465 18.7208 30.1051C18.7208 28.819 18.7025 27.5322 18.7274 26.2468C18.7413 25.5255 18.7311 24.7991 18.9162 24.0873C19.2227 22.9073 19.977 22.1362 21.0818 21.6943C22.368 21.1801 23.6615 21.262 24.9294 21.7609C26.7358 22.472 28.0535 23.7537 29.0463 25.3909C29.6982 26.4663 30.1013 27.6353 30.2703 28.8805C30.3267 29.2952 30.3201 29.7181 30.3516 30.1365C30.3647 30.3063 30.304 30.3531 30.1365 30.3523C28.6125 30.3465 27.0885 30.3487 25.5638 30.3487C25.2221 30.3487 24.8812 30.3487 24.5395 30.3487V30.348Z" fill="black" fill-opacity="0.2"/>
<path d="M24.5395 30.348C22.6804 30.348 20.8206 30.348 18.9615 30.348C18.7216 30.348 18.7208 30.3465 18.7208 30.1051C18.7208 28.819 18.7025 27.5322 18.7274 26.2468C18.7413 25.5255 18.7311 24.7991 18.9162 24.0873C19.2227 22.9073 19.977 22.1362 21.0818 21.6943C22.368 21.1801 23.6615 21.262 24.9294 21.7609C26.7358 22.472 28.0535 23.7537 29.0463 25.3909C29.6982 26.4663 30.1013 27.6353 30.2703 28.8805C30.3267 29.2952 30.3201 29.7181 30.3516 30.1365C30.3647 30.3063 30.304 30.3531 30.1365 30.3523C28.6125 30.3465 27.0885 30.3487 25.5638 30.3487C25.2221 30.3487 24.8812 30.3487 24.5395 30.3487V30.348Z" fill="black" fill-opacity="0.2"/>
<path d="M24.5395 30.348C22.6804 30.348 20.8206 30.348 18.9615 30.348C18.7216 30.348 18.7208 30.3465 18.7208 30.1051C18.7208 28.819 18.7025 27.5322 18.7274 26.2468C18.7413 25.5255 18.7311 24.7991 18.9162 24.0873C19.2227 22.9073 19.977 22.1362 21.0818 21.6943C22.368 21.1801 23.6615 21.262 24.9294 21.7609C26.7358 22.472 28.0535 23.7537 29.0463 25.3909C29.6982 26.4663 30.1013 27.6353 30.2703 28.8805C30.3267 29.2952 30.3201 29.7181 30.3516 30.1365C30.3647 30.3063 30.304 30.3531 30.1365 30.3523C28.6125 30.3465 27.0885 30.3487 25.5638 30.3487C25.2221 30.3487 24.8812 30.3487 24.5395 30.3487V30.348Z" fill="black" fill-opacity="0.2"/>
<path d="M24.5395 30.348C22.6804 30.348 20.8206 30.348 18.9615 30.348C18.7216 30.348 18.7208 30.3465 18.7208 30.1051C18.7208 28.819 18.7025 27.5322 18.7274 26.2468C18.7413 25.5255 18.7311 24.7991 18.9162 24.0873C19.2227 22.9073 19.977 22.1362 21.0818 21.6943C22.368 21.1801 23.6615 21.262 24.9294 21.7609C26.7358 22.472 28.0535 23.7537 29.0463 25.3909C29.6982 26.4663 30.1013 27.6353 30.2703 28.8805C30.3267 29.2952 30.3201 29.7181 30.3516 30.1365C30.3647 30.3063 30.304 30.3531 30.1365 30.3523C28.6125 30.3465 27.0885 30.3487 25.5638 30.3487C25.2221 30.3487 24.8812 30.3487 24.5395 30.3487V30.348Z" fill="black" fill-opacity="0.2"/>
<path d="M5.81495 30.3489C3.95515 30.3489 2.09608 30.3489 0.236275 30.3489C-4.13273e-05 30.3489 -0.00223622 30.3481 -4.13275e-05 30.1067C0.0175178 27.6713 0.874257 25.5681 2.5153 23.7787C3.26083 22.9652 4.12782 22.3112 5.14332 21.873C6.49025 21.2914 7.86864 21.1393 9.26166 21.6938C10.4725 22.1759 11.2612 23.0391 11.48 24.3515C11.5546 24.7992 11.5875 25.2587 11.5948 25.713C11.6175 27.1753 11.619 28.6377 11.6278 30.1001C11.6292 30.3481 11.6278 30.3489 11.3761 30.3489C9.52286 30.3489 7.6689 30.3489 5.81569 30.3489H5.81495Z" fill="#00481D"/>
<path d="M5.81495 30.3489C3.95515 30.3489 2.09608 30.3489 0.236275 30.3489C-4.13273e-05 30.3489 -0.00223622 30.3481 -4.13275e-05 30.1067C0.0175178 27.6713 0.874257 25.5681 2.5153 23.7787C3.26083 22.9652 4.12782 22.3112 5.14332 21.873C6.49025 21.2914 7.86864 21.1393 9.26166 21.6938C10.4725 22.1759 11.2612 23.0391 11.48 24.3515C11.5546 24.7992 11.5875 25.2587 11.5948 25.713C11.6175 27.1753 11.619 28.6377 11.6278 30.1001C11.6292 30.3481 11.6278 30.3489 11.3761 30.3489C9.52286 30.3489 7.6689 30.3489 5.81569 30.3489H5.81495Z" fill="black" fill-opacity="0.2"/>
<path d="M5.81495 30.3489C3.95515 30.3489 2.09608 30.3489 0.236275 30.3489C-4.13273e-05 30.3489 -0.00223622 30.3481 -4.13275e-05 30.1067C0.0175178 27.6713 0.874257 25.5681 2.5153 23.7787C3.26083 22.9652 4.12782 22.3112 5.14332 21.873C6.49025 21.2914 7.86864 21.1393 9.26166 21.6938C10.4725 22.1759 11.2612 23.0391 11.48 24.3515C11.5546 24.7992 11.5875 25.2587 11.5948 25.713C11.6175 27.1753 11.619 28.6377 11.6278 30.1001C11.6292 30.3481 11.6278 30.3489 11.3761 30.3489C9.52286 30.3489 7.6689 30.3489 5.81569 30.3489H5.81495Z" fill="black" fill-opacity="0.2"/>
<path d="M5.81495 30.3489C3.95515 30.3489 2.09608 30.3489 0.236275 30.3489C-4.13273e-05 30.3489 -0.00223622 30.3481 -4.13275e-05 30.1067C0.0175178 27.6713 0.874257 25.5681 2.5153 23.7787C3.26083 22.9652 4.12782 22.3112 5.14332 21.873C6.49025 21.2914 7.86864 21.1393 9.26166 21.6938C10.4725 22.1759 11.2612 23.0391 11.48 24.3515C11.5546 24.7992 11.5875 25.2587 11.5948 25.713C11.6175 27.1753 11.619 28.6377 11.6278 30.1001C11.6292 30.3481 11.6278 30.3489 11.3761 30.3489C9.52286 30.3489 7.6689 30.3489 5.81569 30.3489H5.81495Z" fill="black" fill-opacity="0.2"/>
<path d="M5.81495 30.3489C3.95515 30.3489 2.09608 30.3489 0.236275 30.3489C-4.13273e-05 30.3489 -0.00223622 30.3481 -4.13275e-05 30.1067C0.0175178 27.6713 0.874257 25.5681 2.5153 23.7787C3.26083 22.9652 4.12782 22.3112 5.14332 21.873C6.49025 21.2914 7.86864 21.1393 9.26166 21.6938C10.4725 22.1759 11.2612 23.0391 11.48 24.3515C11.5546 24.7992 11.5875 25.2587 11.5948 25.713C11.6175 27.1753 11.619 28.6377 11.6278 30.1001C11.6292 30.3481 11.6278 30.3489 11.3761 30.3489C9.52286 30.3489 7.6689 30.3489 5.81569 30.3489H5.81495Z" fill="black" fill-opacity="0.2"/>
<path d="M5.81495 30.3489C3.95515 30.3489 2.09608 30.3489 0.236275 30.3489C-4.13273e-05 30.3489 -0.00223622 30.3481 -4.13275e-05 30.1067C0.0175178 27.6713 0.874257 25.5681 2.5153 23.7787C3.26083 22.9652 4.12782 22.3112 5.14332 21.873C6.49025 21.2914 7.86864 21.1393 9.26166 21.6938C10.4725 22.1759 11.2612 23.0391 11.48 24.3515C11.5546 24.7992 11.5875 25.2587 11.5948 25.713C11.6175 27.1753 11.619 28.6377 11.6278 30.1001C11.6292 30.3481 11.6278 30.3489 11.3761 30.3489C9.52286 30.3489 7.6689 30.3489 5.81569 30.3489H5.81495Z" fill="black" fill-opacity="0.2"/>
<path d="M5.81495 30.3489C3.95515 30.3489 2.09608 30.3489 0.236275 30.3489C-4.13273e-05 30.3489 -0.00223622 30.3481 -4.13275e-05 30.1067C0.0175178 27.6713 0.874257 25.5681 2.5153 23.7787C3.26083 22.9652 4.12782 22.3112 5.14332 21.873C6.49025 21.2914 7.86864 21.1393 9.26166 21.6938C10.4725 22.1759 11.2612 23.0391 11.48 24.3515C11.5546 24.7992 11.5875 25.2587 11.5948 25.713C11.6175 27.1753 11.619 28.6377 11.6278 30.1001C11.6292 30.3481 11.6278 30.3489 11.3761 30.3489C9.52286 30.3489 7.6689 30.3489 5.81569 30.3489H5.81495Z" fill="black" fill-opacity="0.2"/>
<path d="M5.81495 30.3489C3.95515 30.3489 2.09608 30.3489 0.236275 30.3489C-4.13273e-05 30.3489 -0.00223622 30.3481 -4.13275e-05 30.1067C0.0175178 27.6713 0.874257 25.5681 2.5153 23.7787C3.26083 22.9652 4.12782 22.3112 5.14332 21.873C6.49025 21.2914 7.86864 21.1393 9.26166 21.6938C10.4725 22.1759 11.2612 23.0391 11.48 24.3515C11.5546 24.7992 11.5875 25.2587 11.5948 25.713C11.6175 27.1753 11.619 28.6377 11.6278 30.1001C11.6292 30.3481 11.6278 30.3489 11.3761 30.3489C9.52286 30.3489 7.6689 30.3489 5.81569 30.3489H5.81495Z" fill="black" fill-opacity="0.2"/>
<path d="M5.81495 30.3489C3.95515 30.3489 2.09608 30.3489 0.236275 30.3489C-4.13273e-05 30.3489 -0.00223622 30.3481 -4.13275e-05 30.1067C0.0175178 27.6713 0.874257 25.5681 2.5153 23.7787C3.26083 22.9652 4.12782 22.3112 5.14332 21.873C6.49025 21.2914 7.86864 21.1393 9.26166 21.6938C10.4725 22.1759 11.2612 23.0391 11.48 24.3515C11.5546 24.7992 11.5875 25.2587 11.5948 25.713C11.6175 27.1753 11.619 28.6377 11.6278 30.1001C11.6292 30.3481 11.6278 30.3489 11.3761 30.3489C9.52286 30.3489 7.6689 30.3489 5.81569 30.3489H5.81495Z" fill="black" fill-opacity="0.2"/>
<path d="M5.81495 30.3489C3.95515 30.3489 2.09608 30.3489 0.236275 30.3489C-4.13273e-05 30.3489 -0.00223622 30.3481 -4.13275e-05 30.1067C0.0175178 27.6713 0.874257 25.5681 2.5153 23.7787C3.26083 22.9652 4.12782 22.3112 5.14332 21.873C6.49025 21.2914 7.86864 21.1393 9.26166 21.6938C10.4725 22.1759 11.2612 23.0391 11.48 24.3515C11.5546 24.7992 11.5875 25.2587 11.5948 25.713C11.6175 27.1753 11.619 28.6377 11.6278 30.1001C11.6292 30.3481 11.6278 30.3489 11.3761 30.3489C9.52286 30.3489 7.6689 30.3489 5.81569 30.3489H5.81495Z" fill="black" fill-opacity="0.2"/>
<path d="M5.81495 30.3489C3.95515 30.3489 2.09608 30.3489 0.236275 30.3489C-4.13273e-05 30.3489 -0.00223622 30.3481 -4.13275e-05 30.1067C0.0175178 27.6713 0.874257 25.5681 2.5153 23.7787C3.26083 22.9652 4.12782 22.3112 5.14332 21.873C6.49025 21.2914 7.86864 21.1393 9.26166 21.6938C10.4725 22.1759 11.2612 23.0391 11.48 24.3515C11.5546 24.7992 11.5875 25.2587 11.5948 25.713C11.6175 27.1753 11.619 28.6377 11.6278 30.1001C11.6292 30.3481 11.6278 30.3489 11.3761 30.3489C9.52286 30.3489 7.6689 30.3489 5.81569 30.3489H5.81495Z" fill="black" fill-opacity="0.2"/>
<path d="M0.0339355 0.018289C0.111488 0.0124365 0.168555 0.0036578 0.224891 0.0036578C3.22384 0.00292624 6.22279 0.0036578 9.22174 0C9.35856 0 9.44269 0.0460882 9.5283 0.150701C10.5892 1.44849 11.4349 2.86844 11.9983 4.45081C12.3048 5.31258 12.517 6.19704 12.6655 7.09978C12.8345 8.12909 12.9384 9.16424 12.9487 10.206C12.9684 12.2287 12.9757 14.2515 12.9882 16.2743C12.9889 16.4528 12.9882 16.6313 12.9713 16.8127C11.1781 9.28276 6.86297 3.70315 0.0339355 0.018289Z" fill="#00481D"/>
<path d="M0.0339355 0.018289C0.111488 0.0124365 0.168555 0.0036578 0.224891 0.0036578C3.22384 0.00292624 6.22279 0.0036578 9.22174 0C9.35856 0 9.44269 0.0460882 9.5283 0.150701C10.5892 1.44849 11.4349 2.86844 11.9983 4.45081C12.3048 5.31258 12.517 6.19704 12.6655 7.09978C12.8345 8.12909 12.9384 9.16424 12.9487 10.206C12.9684 12.2287 12.9757 14.2515 12.9882 16.2743C12.9889 16.4528 12.9882 16.6313 12.9713 16.8127C11.1781 9.28276 6.86297 3.70315 0.0339355 0.018289Z" fill="black" fill-opacity="0.2"/>
<path d="M0.0339355 0.018289C0.111488 0.0124365 0.168555 0.0036578 0.224891 0.0036578C3.22384 0.00292624 6.22279 0.0036578 9.22174 0C9.35856 0 9.44269 0.0460882 9.5283 0.150701C10.5892 1.44849 11.4349 2.86844 11.9983 4.45081C12.3048 5.31258 12.517 6.19704 12.6655 7.09978C12.8345 8.12909 12.9384 9.16424 12.9487 10.206C12.9684 12.2287 12.9757 14.2515 12.9882 16.2743C12.9889 16.4528 12.9882 16.6313 12.9713 16.8127C11.1781 9.28276 6.86297 3.70315 0.0339355 0.018289Z" fill="black" fill-opacity="0.2"/>
<path d="M0.0339355 0.018289C0.111488 0.0124365 0.168555 0.0036578 0.224891 0.0036578C3.22384 0.00292624 6.22279 0.0036578 9.22174 0C9.35856 0 9.44269 0.0460882 9.5283 0.150701C10.5892 1.44849 11.4349 2.86844 11.9983 4.45081C12.3048 5.31258 12.517 6.19704 12.6655 7.09978C12.8345 8.12909 12.9384 9.16424 12.9487 10.206C12.9684 12.2287 12.9757 14.2515 12.9882 16.2743C12.9889 16.4528 12.9882 16.6313 12.9713 16.8127C11.1781 9.28276 6.86297 3.70315 0.0339355 0.018289Z" fill="black" fill-opacity="0.2"/>
<path d="M0.0339355 0.018289C0.111488 0.0124365 0.168555 0.0036578 0.224891 0.0036578C3.22384 0.00292624 6.22279 0.0036578 9.22174 0C9.35856 0 9.44269 0.0460882 9.5283 0.150701C10.5892 1.44849 11.4349 2.86844 11.9983 4.45081C12.3048 5.31258 12.517 6.19704 12.6655 7.09978C12.8345 8.12909 12.9384 9.16424 12.9487 10.206C12.9684 12.2287 12.9757 14.2515 12.9882 16.2743C12.9889 16.4528 12.9882 16.6313 12.9713 16.8127C11.1781 9.28276 6.86297 3.70315 0.0339355 0.018289Z" fill="black" fill-opacity="0.2"/>
<path d="M0.0339355 0.018289C0.111488 0.0124365 0.168555 0.0036578 0.224891 0.0036578C3.22384 0.00292624 6.22279 0.0036578 9.22174 0C9.35856 0 9.44269 0.0460882 9.5283 0.150701C10.5892 1.44849 11.4349 2.86844 11.9983 4.45081C12.3048 5.31258 12.517 6.19704 12.6655 7.09978C12.8345 8.12909 12.9384 9.16424 12.9487 10.206C12.9684 12.2287 12.9757 14.2515 12.9882 16.2743C12.9889 16.4528 12.9882 16.6313 12.9713 16.8127C11.1781 9.28276 6.86297 3.70315 0.0339355 0.018289Z" fill="black" fill-opacity="0.2"/>
<path d="M0.0339355 0.018289C0.111488 0.0124365 0.168555 0.0036578 0.224891 0.0036578C3.22384 0.00292624 6.22279 0.0036578 9.22174 0C9.35856 0 9.44269 0.0460882 9.5283 0.150701C10.5892 1.44849 11.4349 2.86844 11.9983 4.45081C12.3048 5.31258 12.517 6.19704 12.6655 7.09978C12.8345 8.12909 12.9384 9.16424 12.9487 10.206C12.9684 12.2287 12.9757 14.2515 12.9882 16.2743C12.9889 16.4528 12.9882 16.6313 12.9713 16.8127C11.1781 9.28276 6.86297 3.70315 0.0339355 0.018289Z" fill="black" fill-opacity="0.2"/>
<path d="M0.0339355 0.018289C0.111488 0.0124365 0.168555 0.0036578 0.224891 0.0036578C3.22384 0.00292624 6.22279 0.0036578 9.22174 0C9.35856 0 9.44269 0.0460882 9.5283 0.150701C10.5892 1.44849 11.4349 2.86844 11.9983 4.45081C12.3048 5.31258 12.517 6.19704 12.6655 7.09978C12.8345 8.12909 12.9384 9.16424 12.9487 10.206C12.9684 12.2287 12.9757 14.2515 12.9882 16.2743C12.9889 16.4528 12.9882 16.6313 12.9713 16.8127C11.1781 9.28276 6.86297 3.70315 0.0339355 0.018289Z" fill="black" fill-opacity="0.2"/>
<path d="M0.0339355 0.018289C0.111488 0.0124365 0.168555 0.0036578 0.224891 0.0036578C3.22384 0.00292624 6.22279 0.0036578 9.22174 0C9.35856 0 9.44269 0.0460882 9.5283 0.150701C10.5892 1.44849 11.4349 2.86844 11.9983 4.45081C12.3048 5.31258 12.517 6.19704 12.6655 7.09978C12.8345 8.12909 12.9384 9.16424 12.9487 10.206C12.9684 12.2287 12.9757 14.2515 12.9882 16.2743C12.9889 16.4528 12.9882 16.6313 12.9713 16.8127C11.1781 9.28276 6.86297 3.70315 0.0339355 0.018289Z" fill="black" fill-opacity="0.2"/>
<path d="M0.0339355 0.018289C0.111488 0.0124365 0.168555 0.0036578 0.224891 0.0036578C3.22384 0.00292624 6.22279 0.0036578 9.22174 0C9.35856 0 9.44269 0.0460882 9.5283 0.150701C10.5892 1.44849 11.4349 2.86844 11.9983 4.45081C12.3048 5.31258 12.517 6.19704 12.6655 7.09978C12.8345 8.12909 12.9384 9.16424 12.9487 10.206C12.9684 12.2287 12.9757 14.2515 12.9882 16.2743C12.9889 16.4528 12.9882 16.6313 12.9713 16.8127C11.1781 9.28276 6.86297 3.70315 0.0339355 0.018289Z" fill="black" fill-opacity="0.2"/>
<path d="M0.0339355 0.018289C0.111488 0.0124365 0.168555 0.0036578 0.224891 0.0036578C3.22384 0.00292624 6.22279 0.0036578 9.22174 0C9.35856 0 9.44269 0.0460882 9.5283 0.150701C10.5892 1.44849 11.4349 2.86844 11.9983 4.45081C12.3048 5.31258 12.517 6.19704 12.6655 7.09978C12.8345 8.12909 12.9384 9.16424 12.9487 10.206C12.9684 12.2287 12.9757 14.2515 12.9882 16.2743C12.9889 16.4528 12.9882 16.6313 12.9713 16.8127C11.1781 9.28276 6.86297 3.70315 0.0339355 0.018289Z" fill="black" fill-opacity="0.2"/>
<path d="M30.3092 0.0235098C23.4823 3.70837 19.1723 9.28432 17.3593 16.8113C17.3593 16.744 17.3593 16.6767 17.3593 16.6094C17.3593 14.7995 17.3491 12.9897 17.3637 11.1798C17.374 9.87688 17.453 8.57617 17.6454 7.28497C18.0456 4.60307 19.1028 2.2138 20.8455 0.133244C20.9026 0.0652087 21.0153 0.00814707 21.1023 0.00814707C24.1188 0.00156304 27.1361 0.0022946 30.1526 0.00302616C30.198 0.00302616 30.2441 0.0147311 30.3084 0.0235098H30.3092Z" fill="#00481D"/>
<path d="M30.3092 0.0235098C23.4823 3.70837 19.1723 9.28432 17.3593 16.8113C17.3593 16.744 17.3593 16.6767 17.3593 16.6094C17.3593 14.7995 17.3491 12.9897 17.3637 11.1798C17.374 9.87688 17.453 8.57617 17.6454 7.28497C18.0456 4.60307 19.1028 2.2138 20.8455 0.133244C20.9026 0.0652087 21.0153 0.00814707 21.1023 0.00814707C24.1188 0.00156304 27.1361 0.0022946 30.1526 0.00302616C30.198 0.00302616 30.2441 0.0147311 30.3084 0.0235098H30.3092Z" fill="black" fill-opacity="0.2"/>
<path d="M30.3092 0.0235098C23.4823 3.70837 19.1723 9.28432 17.3593 16.8113C17.3593 16.744 17.3593 16.6767 17.3593 16.6094C17.3593 14.7995 17.3491 12.9897 17.3637 11.1798C17.374 9.87688 17.453 8.57617 17.6454 7.28497C18.0456 4.60307 19.1028 2.2138 20.8455 0.133244C20.9026 0.0652087 21.0153 0.00814707 21.1023 0.00814707C24.1188 0.00156304 27.1361 0.0022946 30.1526 0.00302616C30.198 0.00302616 30.2441 0.0147311 30.3084 0.0235098H30.3092Z" fill="black" fill-opacity="0.2"/>
<path d="M30.3092 0.0235098C23.4823 3.70837 19.1723 9.28432 17.3593 16.8113C17.3593 16.744 17.3593 16.6767 17.3593 16.6094C17.3593 14.7995 17.3491 12.9897 17.3637 11.1798C17.374 9.87688 17.453 8.57617 17.6454 7.28497C18.0456 4.60307 19.1028 2.2138 20.8455 0.133244C20.9026 0.0652087 21.0153 0.00814707 21.1023 0.00814707C24.1188 0.00156304 27.1361 0.0022946 30.1526 0.00302616C30.198 0.00302616 30.2441 0.0147311 30.3084 0.0235098H30.3092Z" fill="black" fill-opacity="0.2"/>
<path d="M30.3092 0.0235098C23.4823 3.70837 19.1723 9.28432 17.3593 16.8113C17.3593 16.744 17.3593 16.6767 17.3593 16.6094C17.3593 14.7995 17.3491 12.9897 17.3637 11.1798C17.374 9.87688 17.453 8.57617 17.6454 7.28497C18.0456 4.60307 19.1028 2.2138 20.8455 0.133244C20.9026 0.0652087 21.0153 0.00814707 21.1023 0.00814707C24.1188 0.00156304 27.1361 0.0022946 30.1526 0.00302616C30.198 0.00302616 30.2441 0.0147311 30.3084 0.0235098H30.3092Z" fill="black" fill-opacity="0.2"/>
<path d="M30.3092 0.0235098C23.4823 3.70837 19.1723 9.28432 17.3593 16.8113C17.3593 16.744 17.3593 16.6767 17.3593 16.6094C17.3593 14.7995 17.3491 12.9897 17.3637 11.1798C17.374 9.87688 17.453 8.57617 17.6454 7.28497C18.0456 4.60307 19.1028 2.2138 20.8455 0.133244C20.9026 0.0652087 21.0153 0.00814707 21.1023 0.00814707C24.1188 0.00156304 27.1361 0.0022946 30.1526 0.00302616C30.198 0.00302616 30.2441 0.0147311 30.3084 0.0235098H30.3092Z" fill="black" fill-opacity="0.2"/>
<path d="M30.3092 0.0235098C23.4823 3.70837 19.1723 9.28432 17.3593 16.8113C17.3593 16.744 17.3593 16.6767 17.3593 16.6094C17.3593 14.7995 17.3491 12.9897 17.3637 11.1798C17.374 9.87688 17.453 8.57617 17.6454 7.28497C18.0456 4.60307 19.1028 2.2138 20.8455 0.133244C20.9026 0.0652087 21.0153 0.00814707 21.1023 0.00814707C24.1188 0.00156304 27.1361 0.0022946 30.1526 0.00302616C30.198 0.00302616 30.2441 0.0147311 30.3084 0.0235098H30.3092Z" fill="black" fill-opacity="0.2"/>
<path d="M30.3092 0.0235098C23.4823 3.70837 19.1723 9.28432 17.3593 16.8113C17.3593 16.744 17.3593 16.6767 17.3593 16.6094C17.3593 14.7995 17.3491 12.9897 17.3637 11.1798C17.374 9.87688 17.453 8.57617 17.6454 7.28497C18.0456 4.60307 19.1028 2.2138 20.8455 0.133244C20.9026 0.0652087 21.0153 0.00814707 21.1023 0.00814707C24.1188 0.00156304 27.1361 0.0022946 30.1526 0.00302616C30.198 0.00302616 30.2441 0.0147311 30.3084 0.0235098H30.3092Z" fill="black" fill-opacity="0.2"/>
<path d="M30.3092 0.0235098C23.4823 3.70837 19.1723 9.28432 17.3593 16.8113C17.3593 16.744 17.3593 16.6767 17.3593 16.6094C17.3593 14.7995 17.3491 12.9897 17.3637 11.1798C17.374 9.87688 17.453 8.57617 17.6454 7.28497C18.0456 4.60307 19.1028 2.2138 20.8455 0.133244C20.9026 0.0652087 21.0153 0.00814707 21.1023 0.00814707C24.1188 0.00156304 27.1361 0.0022946 30.1526 0.00302616C30.198 0.00302616 30.2441 0.0147311 30.3084 0.0235098H30.3092Z" fill="black" fill-opacity="0.2"/>
<path d="M30.3092 0.0235098C23.4823 3.70837 19.1723 9.28432 17.3593 16.8113C17.3593 16.744 17.3593 16.6767 17.3593 16.6094C17.3593 14.7995 17.3491 12.9897 17.3637 11.1798C17.374 9.87688 17.453 8.57617 17.6454 7.28497C18.0456 4.60307 19.1028 2.2138 20.8455 0.133244C20.9026 0.0652087 21.0153 0.00814707 21.1023 0.00814707C24.1188 0.00156304 27.1361 0.0022946 30.1526 0.00302616C30.198 0.00302616 30.2441 0.0147311 30.3084 0.0235098H30.3092Z" fill="black" fill-opacity="0.2"/>
<path d="M30.3092 0.0235098C23.4823 3.70837 19.1723 9.28432 17.3593 16.8113C17.3593 16.744 17.3593 16.6767 17.3593 16.6094C17.3593 14.7995 17.3491 12.9897 17.3637 11.1798C17.374 9.87688 17.453 8.57617 17.6454 7.28497C18.0456 4.60307 19.1028 2.2138 20.8455 0.133244C20.9026 0.0652087 21.0153 0.00814707 21.1023 0.00814707C24.1188 0.00156304 27.1361 0.0022946 30.1526 0.00302616C30.198 0.00302616 30.2441 0.0147311 30.3084 0.0235098H30.3092Z" fill="black" fill-opacity="0.2"/>
<path d="M19.0837 18.3994C19.7744 16.6129 20.7694 15.0108 22.0746 13.6026C24.32 11.1804 27.0666 9.6485 30.3289 8.9762V19.161C30.2118 19.0081 30.1211 18.8866 30.026 18.7674C29.1649 17.6839 28.0652 16.978 26.7088 16.6868C25.7057 16.471 24.6953 16.4425 23.6769 16.5691C22.0264 16.7754 20.5433 17.3855 19.2132 18.3782C19.1862 18.3987 19.1547 18.4133 19.1254 18.4309C19.1115 18.4199 19.0976 18.4089 19.0837 18.398V18.3994Z" fill="#00481D"/>
<path d="M19.0837 18.3994C19.7744 16.6129 20.7694 15.0108 22.0746 13.6026C24.32 11.1804 27.0666 9.6485 30.3289 8.9762V19.161C30.2118 19.0081 30.1211 18.8866 30.026 18.7674C29.1649 17.6839 28.0652 16.978 26.7088 16.6868C25.7057 16.471 24.6953 16.4425 23.6769 16.5691C22.0264 16.7754 20.5433 17.3855 19.2132 18.3782C19.1862 18.3987 19.1547 18.4133 19.1254 18.4309C19.1115 18.4199 19.0976 18.4089 19.0837 18.398V18.3994Z" fill="black" fill-opacity="0.2"/>
<path d="M19.0837 18.3994C19.7744 16.6129 20.7694 15.0108 22.0746 13.6026C24.32 11.1804 27.0666 9.6485 30.3289 8.9762V19.161C30.2118 19.0081 30.1211 18.8866 30.026 18.7674C29.1649 17.6839 28.0652 16.978 26.7088 16.6868C25.7057 16.471 24.6953 16.4425 23.6769 16.5691C22.0264 16.7754 20.5433 17.3855 19.2132 18.3782C19.1862 18.3987 19.1547 18.4133 19.1254 18.4309C19.1115 18.4199 19.0976 18.4089 19.0837 18.398V18.3994Z" fill="black" fill-opacity="0.2"/>
<path d="M19.0837 18.3994C19.7744 16.6129 20.7694 15.0108 22.0746 13.6026C24.32 11.1804 27.0666 9.6485 30.3289 8.9762V19.161C30.2118 19.0081 30.1211 18.8866 30.026 18.7674C29.1649 17.6839 28.0652 16.978 26.7088 16.6868C25.7057 16.471 24.6953 16.4425 23.6769 16.5691C22.0264 16.7754 20.5433 17.3855 19.2132 18.3782C19.1862 18.3987 19.1547 18.4133 19.1254 18.4309C19.1115 18.4199 19.0976 18.4089 19.0837 18.398V18.3994Z" fill="black" fill-opacity="0.2"/>
<path d="M19.0837 18.3994C19.7744 16.6129 20.7694 15.0108 22.0746 13.6026C24.32 11.1804 27.0666 9.6485 30.3289 8.9762V19.161C30.2118 19.0081 30.1211 18.8866 30.026 18.7674C29.1649 17.6839 28.0652 16.978 26.7088 16.6868C25.7057 16.471 24.6953 16.4425 23.6769 16.5691C22.0264 16.7754 20.5433 17.3855 19.2132 18.3782C19.1862 18.3987 19.1547 18.4133 19.1254 18.4309C19.1115 18.4199 19.0976 18.4089 19.0837 18.398V18.3994Z" fill="black" fill-opacity="0.2"/>
<path d="M19.0837 18.3994C19.7744 16.6129 20.7694 15.0108 22.0746 13.6026C24.32 11.1804 27.0666 9.6485 30.3289 8.9762V19.161C30.2118 19.0081 30.1211 18.8866 30.026 18.7674C29.1649 17.6839 28.0652 16.978 26.7088 16.6868C25.7057 16.471 24.6953 16.4425 23.6769 16.5691C22.0264 16.7754 20.5433 17.3855 19.2132 18.3782C19.1862 18.3987 19.1547 18.4133 19.1254 18.4309C19.1115 18.4199 19.0976 18.4089 19.0837 18.398V18.3994Z" fill="black" fill-opacity="0.2"/>
<path d="M19.0837 18.3994C19.7744 16.6129 20.7694 15.0108 22.0746 13.6026C24.32 11.1804 27.0666 9.6485 30.3289 8.9762V19.161C30.2118 19.0081 30.1211 18.8866 30.026 18.7674C29.1649 17.6839 28.0652 16.978 26.7088 16.6868C25.7057 16.471 24.6953 16.4425 23.6769 16.5691C22.0264 16.7754 20.5433 17.3855 19.2132 18.3782C19.1862 18.3987 19.1547 18.4133 19.1254 18.4309C19.1115 18.4199 19.0976 18.4089 19.0837 18.398V18.3994Z" fill="black" fill-opacity="0.2"/>
<path d="M19.0837 18.3994C19.7744 16.6129 20.7694 15.0108 22.0746 13.6026C24.32 11.1804 27.0666 9.6485 30.3289 8.9762V19.161C30.2118 19.0081 30.1211 18.8866 30.026 18.7674C29.1649 17.6839 28.0652 16.978 26.7088 16.6868C25.7057 16.471 24.6953 16.4425 23.6769 16.5691C22.0264 16.7754 20.5433 17.3855 19.2132 18.3782C19.1862 18.3987 19.1547 18.4133 19.1254 18.4309C19.1115 18.4199 19.0976 18.4089 19.0837 18.398V18.3994Z" fill="black" fill-opacity="0.2"/>
<path d="M19.0837 18.3994C19.7744 16.6129 20.7694 15.0108 22.0746 13.6026C24.32 11.1804 27.0666 9.6485 30.3289 8.9762V19.161C30.2118 19.0081 30.1211 18.8866 30.026 18.7674C29.1649 17.6839 28.0652 16.978 26.7088 16.6868C25.7057 16.471 24.6953 16.4425 23.6769 16.5691C22.0264 16.7754 20.5433 17.3855 19.2132 18.3782C19.1862 18.3987 19.1547 18.4133 19.1254 18.4309C19.1115 18.4199 19.0976 18.4089 19.0837 18.398V18.3994Z" fill="black" fill-opacity="0.2"/>
<path d="M19.0837 18.3994C19.7744 16.6129 20.7694 15.0108 22.0746 13.6026C24.32 11.1804 27.0666 9.6485 30.3289 8.9762V19.161C30.2118 19.0081 30.1211 18.8866 30.026 18.7674C29.1649 17.6839 28.0652 16.978 26.7088 16.6868C25.7057 16.471 24.6953 16.4425 23.6769 16.5691C22.0264 16.7754 20.5433 17.3855 19.2132 18.3782C19.1862 18.3987 19.1547 18.4133 19.1254 18.4309C19.1115 18.4199 19.0976 18.4089 19.0837 18.398V18.3994Z" fill="black" fill-opacity="0.2"/>
<path d="M19.0837 18.3994C19.7744 16.6129 20.7694 15.0108 22.0746 13.6026C24.32 11.1804 27.0666 9.6485 30.3289 8.9762V19.161C30.2118 19.0081 30.1211 18.8866 30.026 18.7674C29.1649 17.6839 28.0652 16.978 26.7088 16.6868C25.7057 16.471 24.6953 16.4425 23.6769 16.5691C22.0264 16.7754 20.5433 17.3855 19.2132 18.3782C19.1862 18.3987 19.1547 18.4133 19.1254 18.4309C19.1115 18.4199 19.0976 18.4089 19.0837 18.398V18.3994Z" fill="black" fill-opacity="0.2"/>
<path d="M11.226 18.4333C10.9817 18.2679 10.7417 18.0975 10.4929 17.9395C9.54987 17.3374 8.52705 16.9299 7.43326 16.6951C6.48434 16.4917 5.52663 16.4478 4.56308 16.5363C2.9513 16.6848 1.57218 17.3154 0.497411 18.5503C0.338647 18.7325 0.198174 18.9314 0.022583 19.1575V8.98517C0.975897 9.16367 1.89702 9.43654 2.78888 9.80159C5.59687 10.9509 7.86858 12.7746 9.60181 15.2634C10.2837 16.2422 10.8441 17.2862 11.2619 18.4033L11.2246 18.4325L11.226 18.4333Z" fill="#00481D"/>
<path d="M11.226 18.4333C10.9817 18.2679 10.7417 18.0975 10.4929 17.9395C9.54987 17.3374 8.52705 16.9299 7.43326 16.6951C6.48434 16.4917 5.52663 16.4478 4.56308 16.5363C2.9513 16.6848 1.57218 17.3154 0.497411 18.5503C0.338647 18.7325 0.198174 18.9314 0.022583 19.1575V8.98517C0.975897 9.16367 1.89702 9.43654 2.78888 9.80159C5.59687 10.9509 7.86858 12.7746 9.60181 15.2634C10.2837 16.2422 10.8441 17.2862 11.2619 18.4033L11.2246 18.4325L11.226 18.4333Z" fill="black" fill-opacity="0.2"/>
<path d="M11.226 18.4333C10.9817 18.2679 10.7417 18.0975 10.4929 17.9395C9.54987 17.3374 8.52705 16.9299 7.43326 16.6951C6.48434 16.4917 5.52663 16.4478 4.56308 16.5363C2.9513 16.6848 1.57218 17.3154 0.497411 18.5503C0.338647 18.7325 0.198174 18.9314 0.022583 19.1575V8.98517C0.975897 9.16367 1.89702 9.43654 2.78888 9.80159C5.59687 10.9509 7.86858 12.7746 9.60181 15.2634C10.2837 16.2422 10.8441 17.2862 11.2619 18.4033L11.2246 18.4325L11.226 18.4333Z" fill="black" fill-opacity="0.2"/>
<path d="M11.226 18.4333C10.9817 18.2679 10.7417 18.0975 10.4929 17.9395C9.54987 17.3374 8.52705 16.9299 7.43326 16.6951C6.48434 16.4917 5.52663 16.4478 4.56308 16.5363C2.9513 16.6848 1.57218 17.3154 0.497411 18.5503C0.338647 18.7325 0.198174 18.9314 0.022583 19.1575V8.98517C0.975897 9.16367 1.89702 9.43654 2.78888 9.80159C5.59687 10.9509 7.86858 12.7746 9.60181 15.2634C10.2837 16.2422 10.8441 17.2862 11.2619 18.4033L11.2246 18.4325L11.226 18.4333Z" fill="black" fill-opacity="0.2"/>
<path d="M11.226 18.4333C10.9817 18.2679 10.7417 18.0975 10.4929 17.9395C9.54987 17.3374 8.52705 16.9299 7.43326 16.6951C6.48434 16.4917 5.52663 16.4478 4.56308 16.5363C2.9513 16.6848 1.57218 17.3154 0.497411 18.5503C0.338647 18.7325 0.198174 18.9314 0.022583 19.1575V8.98517C0.975897 9.16367 1.89702 9.43654 2.78888 9.80159C5.59687 10.9509 7.86858 12.7746 9.60181 15.2634C10.2837 16.2422 10.8441 17.2862 11.2619 18.4033L11.2246 18.4325L11.226 18.4333Z" fill="black" fill-opacity="0.2"/>
<path d="M11.226 18.4333C10.9817 18.2679 10.7417 18.0975 10.4929 17.9395C9.54987 17.3374 8.52705 16.9299 7.43326 16.6951C6.48434 16.4917 5.52663 16.4478 4.56308 16.5363C2.9513 16.6848 1.57218 17.3154 0.497411 18.5503C0.338647 18.7325 0.198174 18.9314 0.022583 19.1575V8.98517C0.975897 9.16367 1.89702 9.43654 2.78888 9.80159C5.59687 10.9509 7.86858 12.7746 9.60181 15.2634C10.2837 16.2422 10.8441 17.2862 11.2619 18.4033L11.2246 18.4325L11.226 18.4333Z" fill="black" fill-opacity="0.2"/>
<path d="M11.226 18.4333C10.9817 18.2679 10.7417 18.0975 10.4929 17.9395C9.54987 17.3374 8.52705 16.9299 7.43326 16.6951C6.48434 16.4917 5.52663 16.4478 4.56308 16.5363C2.9513 16.6848 1.57218 17.3154 0.497411 18.5503C0.338647 18.7325 0.198174 18.9314 0.022583 19.1575V8.98517C0.975897 9.16367 1.89702 9.43654 2.78888 9.80159C5.59687 10.9509 7.86858 12.7746 9.60181 15.2634C10.2837 16.2422 10.8441 17.2862 11.2619 18.4033L11.2246 18.4325L11.226 18.4333Z" fill="black" fill-opacity="0.2"/>
<path d="M11.226 18.4333C10.9817 18.2679 10.7417 18.0975 10.4929 17.9395C9.54987 17.3374 8.52705 16.9299 7.43326 16.6951C6.48434 16.4917 5.52663 16.4478 4.56308 16.5363C2.9513 16.6848 1.57218 17.3154 0.497411 18.5503C0.338647 18.7325 0.198174 18.9314 0.022583 19.1575V8.98517C0.975897 9.16367 1.89702 9.43654 2.78888 9.80159C5.59687 10.9509 7.86858 12.7746 9.60181 15.2634C10.2837 16.2422 10.8441 17.2862 11.2619 18.4033L11.2246 18.4325L11.226 18.4333Z" fill="black" fill-opacity="0.2"/>
<path d="M11.226 18.4333C10.9817 18.2679 10.7417 18.0975 10.4929 17.9395C9.54987 17.3374 8.52705 16.9299 7.43326 16.6951C6.48434 16.4917 5.52663 16.4478 4.56308 16.5363C2.9513 16.6848 1.57218 17.3154 0.497411 18.5503C0.338647 18.7325 0.198174 18.9314 0.022583 19.1575V8.98517C0.975897 9.16367 1.89702 9.43654 2.78888 9.80159C5.59687 10.9509 7.86858 12.7746 9.60181 15.2634C10.2837 16.2422 10.8441 17.2862 11.2619 18.4033L11.2246 18.4325L11.226 18.4333Z" fill="black" fill-opacity="0.2"/>
<path d="M11.226 18.4333C10.9817 18.2679 10.7417 18.0975 10.4929 17.9395C9.54987 17.3374 8.52705 16.9299 7.43326 16.6951C6.48434 16.4917 5.52663 16.4478 4.56308 16.5363C2.9513 16.6848 1.57218 17.3154 0.497411 18.5503C0.338647 18.7325 0.198174 18.9314 0.022583 19.1575V8.98517C0.975897 9.16367 1.89702 9.43654 2.78888 9.80159C5.59687 10.9509 7.86858 12.7746 9.60181 15.2634C10.2837 16.2422 10.8441 17.2862 11.2619 18.4033L11.2246 18.4325L11.226 18.4333Z" fill="black" fill-opacity="0.2"/>
<path d="M11.226 18.4333C10.9817 18.2679 10.7417 18.0975 10.4929 17.9395C9.54987 17.3374 8.52705 16.9299 7.43326 16.6951C6.48434 16.4917 5.52663 16.4478 4.56308 16.5363C2.9513 16.6848 1.57218 17.3154 0.497411 18.5503C0.338647 18.7325 0.198174 18.9314 0.022583 19.1575V8.98517C0.975897 9.16367 1.89702 9.43654 2.78888 9.80159C5.59687 10.9509 7.86858 12.7746 9.60181 15.2634C10.2837 16.2422 10.8441 17.2862 11.2619 18.4033L11.2246 18.4325L11.226 18.4333Z" fill="black" fill-opacity="0.2"/>
</g>
<path d="M120.275 26.176C119.043 26.176 117.924 25.8724 116.918 25.2653C115.921 24.6494 115.127 23.8081 114.537 22.7412C113.956 21.6743 113.666 20.4556 113.666 19.0852C113.666 17.732 113.948 16.5264 114.511 15.4682C115.084 14.4013 115.869 13.5599 116.866 12.9441C117.864 12.3282 119 12.0203 120.275 12.0203C121.316 12.0203 122.274 12.2372 123.15 12.6709C124.027 13.1046 124.72 13.7074 125.232 14.4794V12.4367H128.472V25.7597H125.232V23.6259C124.642 24.4326 123.918 25.0614 123.059 25.5125C122.209 25.9548 121.281 26.176 120.275 26.176ZM121.199 23.4047C122.006 23.4047 122.717 23.2226 123.333 22.8583C123.948 22.4853 124.434 21.9735 124.79 21.323C125.145 20.6725 125.323 19.9309 125.323 19.0982C125.323 18.2568 125.145 17.5152 124.79 16.8733C124.434 16.2228 123.948 15.7154 123.333 15.3511C122.717 14.9781 122.006 14.7916 121.199 14.7916C120.401 14.7916 119.69 14.9781 119.065 15.3511C118.441 15.7154 117.951 16.2228 117.595 16.8733C117.239 17.5239 117.061 18.2655 117.061 19.0982C117.061 19.9309 117.239 20.6725 117.595 21.323C117.951 21.9735 118.441 22.4853 119.065 22.8583C119.69 23.2226 120.401 23.4047 121.199 23.4047Z" fill="#00481D"/>
<path d="M120.275 26.176C119.043 26.176 117.924 25.8724 116.918 25.2653C115.921 24.6494 115.127 23.8081 114.537 22.7412C113.956 21.6743 113.666 20.4556 113.666 19.0852C113.666 17.732 113.948 16.5264 114.511 15.4682C115.084 14.4013 115.869 13.5599 116.866 12.9441C117.864 12.3282 119 12.0203 120.275 12.0203C121.316 12.0203 122.274 12.2372 123.15 12.6709C124.027 13.1046 124.72 13.7074 125.232 14.4794V12.4367H128.472V25.7597H125.232V23.6259C124.642 24.4326 123.918 25.0614 123.059 25.5125C122.209 25.9548 121.281 26.176 120.275 26.176ZM121.199 23.4047C122.006 23.4047 122.717 23.2226 123.333 22.8583C123.948 22.4853 124.434 21.9735 124.79 21.323C125.145 20.6725 125.323 19.9309 125.323 19.0982C125.323 18.2568 125.145 17.5152 124.79 16.8733C124.434 16.2228 123.948 15.7154 123.333 15.3511C122.717 14.9781 122.006 14.7916 121.199 14.7916C120.401 14.7916 119.69 14.9781 119.065 15.3511C118.441 15.7154 117.951 16.2228 117.595 16.8733C117.239 17.5239 117.061 18.2655 117.061 19.0982C117.061 19.9309 117.239 20.6725 117.595 21.323C117.951 21.9735 118.441 22.4853 119.065 22.8583C119.69 23.2226 120.401 23.4047 121.199 23.4047Z" fill="black" fill-opacity="0.2"/>
<path d="M120.275 26.176C119.043 26.176 117.924 25.8724 116.918 25.2653C115.921 24.6494 115.127 23.8081 114.537 22.7412C113.956 21.6743 113.666 20.4556 113.666 19.0852C113.666 17.732 113.948 16.5264 114.511 15.4682C115.084 14.4013 115.869 13.5599 116.866 12.9441C117.864 12.3282 119 12.0203 120.275 12.0203C121.316 12.0203 122.274 12.2372 123.15 12.6709C124.027 13.1046 124.72 13.7074 125.232 14.4794V12.4367H128.472V25.7597H125.232V23.6259C124.642 24.4326 123.918 25.0614 123.059 25.5125C122.209 25.9548 121.281 26.176 120.275 26.176ZM121.199 23.4047C122.006 23.4047 122.717 23.2226 123.333 22.8583C123.948 22.4853 124.434 21.9735 124.79 21.323C125.145 20.6725 125.323 19.9309 125.323 19.0982C125.323 18.2568 125.145 17.5152 124.79 16.8733C124.434 16.2228 123.948 15.7154 123.333 15.3511C122.717 14.9781 122.006 14.7916 121.199 14.7916C120.401 14.7916 119.69 14.9781 119.065 15.3511C118.441 15.7154 117.951 16.2228 117.595 16.8733C117.239 17.5239 117.061 18.2655 117.061 19.0982C117.061 19.9309 117.239 20.6725 117.595 21.323C117.951 21.9735 118.441 22.4853 119.065 22.8583C119.69 23.2226 120.401 23.4047 121.199 23.4047Z" fill="black" fill-opacity="0.2"/>
<path d="M120.275 26.176C119.043 26.176 117.924 25.8724 116.918 25.2653C115.921 24.6494 115.127 23.8081 114.537 22.7412C113.956 21.6743 113.666 20.4556 113.666 19.0852C113.666 17.732 113.948 16.5264 114.511 15.4682C115.084 14.4013 115.869 13.5599 116.866 12.9441C117.864 12.3282 119 12.0203 120.275 12.0203C121.316 12.0203 122.274 12.2372 123.15 12.6709C124.027 13.1046 124.72 13.7074 125.232 14.4794V12.4367H128.472V25.7597H125.232V23.6259C124.642 24.4326 123.918 25.0614 123.059 25.5125C122.209 25.9548 121.281 26.176 120.275 26.176ZM121.199 23.4047C122.006 23.4047 122.717 23.2226 123.333 22.8583C123.948 22.4853 124.434 21.9735 124.79 21.323C125.145 20.6725 125.323 19.9309 125.323 19.0982C125.323 18.2568 125.145 17.5152 124.79 16.8733C124.434 16.2228 123.948 15.7154 123.333 15.3511C122.717 14.9781 122.006 14.7916 121.199 14.7916C120.401 14.7916 119.69 14.9781 119.065 15.3511C118.441 15.7154 117.951 16.2228 117.595 16.8733C117.239 17.5239 117.061 18.2655 117.061 19.0982C117.061 19.9309 117.239 20.6725 117.595 21.323C117.951 21.9735 118.441 22.4853 119.065 22.8583C119.69 23.2226 120.401 23.4047 121.199 23.4047Z" fill="black" fill-opacity="0.2"/>
<path d="M120.275 26.176C119.043 26.176 117.924 25.8724 116.918 25.2653C115.921 24.6494 115.127 23.8081 114.537 22.7412C113.956 21.6743 113.666 20.4556 113.666 19.0852C113.666 17.732 113.948 16.5264 114.511 15.4682C115.084 14.4013 115.869 13.5599 116.866 12.9441C117.864 12.3282 119 12.0203 120.275 12.0203C121.316 12.0203 122.274 12.2372 123.15 12.6709C124.027 13.1046 124.72 13.7074 125.232 14.4794V12.4367H128.472V25.7597H125.232V23.6259C124.642 24.4326 123.918 25.0614 123.059 25.5125C122.209 25.9548 121.281 26.176 120.275 26.176ZM121.199 23.4047C122.006 23.4047 122.717 23.2226 123.333 22.8583C123.948 22.4853 124.434 21.9735 124.79 21.323C125.145 20.6725 125.323 19.9309 125.323 19.0982C125.323 18.2568 125.145 17.5152 124.79 16.8733C124.434 16.2228 123.948 15.7154 123.333 15.3511C122.717 14.9781 122.006 14.7916 121.199 14.7916C120.401 14.7916 119.69 14.9781 119.065 15.3511C118.441 15.7154 117.951 16.2228 117.595 16.8733C117.239 17.5239 117.061 18.2655 117.061 19.0982C117.061 19.9309 117.239 20.6725 117.595 21.323C117.951 21.9735 118.441 22.4853 119.065 22.8583C119.69 23.2226 120.401 23.4047 121.199 23.4047Z" fill="black" fill-opacity="0.2"/>
<path d="M120.275 26.176C119.043 26.176 117.924 25.8724 116.918 25.2653C115.921 24.6494 115.127 23.8081 114.537 22.7412C113.956 21.6743 113.666 20.4556 113.666 19.0852C113.666 17.732 113.948 16.5264 114.511 15.4682C115.084 14.4013 115.869 13.5599 116.866 12.9441C117.864 12.3282 119 12.0203 120.275 12.0203C121.316 12.0203 122.274 12.2372 123.15 12.6709C124.027 13.1046 124.72 13.7074 125.232 14.4794V12.4367H128.472V25.7597H125.232V23.6259C124.642 24.4326 123.918 25.0614 123.059 25.5125C122.209 25.9548 121.281 26.176 120.275 26.176ZM121.199 23.4047C122.006 23.4047 122.717 23.2226 123.333 22.8583C123.948 22.4853 124.434 21.9735 124.79 21.323C125.145 20.6725 125.323 19.9309 125.323 19.0982C125.323 18.2568 125.145 17.5152 124.79 16.8733C124.434 16.2228 123.948 15.7154 123.333 15.3511C122.717 14.9781 122.006 14.7916 121.199 14.7916C120.401 14.7916 119.69 14.9781 119.065 15.3511C118.441 15.7154 117.951 16.2228 117.595 16.8733C117.239 17.5239 117.061 18.2655 117.061 19.0982C117.061 19.9309 117.239 20.6725 117.595 21.323C117.951 21.9735 118.441 22.4853 119.065 22.8583C119.69 23.2226 120.401 23.4047 121.199 23.4047Z" fill="black" fill-opacity="0.2"/>
<path d="M120.275 26.176C119.043 26.176 117.924 25.8724 116.918 25.2653C115.921 24.6494 115.127 23.8081 114.537 22.7412C113.956 21.6743 113.666 20.4556 113.666 19.0852C113.666 17.732 113.948 16.5264 114.511 15.4682C115.084 14.4013 115.869 13.5599 116.866 12.9441C117.864 12.3282 119 12.0203 120.275 12.0203C121.316 12.0203 122.274 12.2372 123.15 12.6709C124.027 13.1046 124.72 13.7074 125.232 14.4794V12.4367H128.472V25.7597H125.232V23.6259C124.642 24.4326 123.918 25.0614 123.059 25.5125C122.209 25.9548 121.281 26.176 120.275 26.176ZM121.199 23.4047C122.006 23.4047 122.717 23.2226 123.333 22.8583C123.948 22.4853 124.434 21.9735 124.79 21.323C125.145 20.6725 125.323 19.9309 125.323 19.0982C125.323 18.2568 125.145 17.5152 124.79 16.8733C124.434 16.2228 123.948 15.7154 123.333 15.3511C122.717 14.9781 122.006 14.7916 121.199 14.7916C120.401 14.7916 119.69 14.9781 119.065 15.3511C118.441 15.7154 117.951 16.2228 117.595 16.8733C117.239 17.5239 117.061 18.2655 117.061 19.0982C117.061 19.9309 117.239 20.6725 117.595 21.323C117.951 21.9735 118.441 22.4853 119.065 22.8583C119.69 23.2226 120.401 23.4047 121.199 23.4047Z" fill="black" fill-opacity="0.2"/>
<path d="M120.275 26.176C119.043 26.176 117.924 25.8724 116.918 25.2653C115.921 24.6494 115.127 23.8081 114.537 22.7412C113.956 21.6743 113.666 20.4556 113.666 19.0852C113.666 17.732 113.948 16.5264 114.511 15.4682C115.084 14.4013 115.869 13.5599 116.866 12.9441C117.864 12.3282 119 12.0203 120.275 12.0203C121.316 12.0203 122.274 12.2372 123.15 12.6709C124.027 13.1046 124.72 13.7074 125.232 14.4794V12.4367H128.472V25.7597H125.232V23.6259C124.642 24.4326 123.918 25.0614 123.059 25.5125C122.209 25.9548 121.281 26.176 120.275 26.176ZM121.199 23.4047C122.006 23.4047 122.717 23.2226 123.333 22.8583C123.948 22.4853 124.434 21.9735 124.79 21.323C125.145 20.6725 125.323 19.9309 125.323 19.0982C125.323 18.2568 125.145 17.5152 124.79 16.8733C124.434 16.2228 123.948 15.7154 123.333 15.3511C122.717 14.9781 122.006 14.7916 121.199 14.7916C120.401 14.7916 119.69 14.9781 119.065 15.3511C118.441 15.7154 117.951 16.2228 117.595 16.8733C117.239 17.5239 117.061 18.2655 117.061 19.0982C117.061 19.9309 117.239 20.6725 117.595 21.323C117.951 21.9735 118.441 22.4853 119.065 22.8583C119.69 23.2226 120.401 23.4047 121.199 23.4047Z" fill="black" fill-opacity="0.2"/>
<path d="M120.275 26.176C119.043 26.176 117.924 25.8724 116.918 25.2653C115.921 24.6494 115.127 23.8081 114.537 22.7412C113.956 21.6743 113.666 20.4556 113.666 19.0852C113.666 17.732 113.948 16.5264 114.511 15.4682C115.084 14.4013 115.869 13.5599 116.866 12.9441C117.864 12.3282 119 12.0203 120.275 12.0203C121.316 12.0203 122.274 12.2372 123.15 12.6709C124.027 13.1046 124.72 13.7074 125.232 14.4794V12.4367H128.472V25.7597H125.232V23.6259C124.642 24.4326 123.918 25.0614 123.059 25.5125C122.209 25.9548 121.281 26.176 120.275 26.176ZM121.199 23.4047C122.006 23.4047 122.717 23.2226 123.333 22.8583C123.948 22.4853 124.434 21.9735 124.79 21.323C125.145 20.6725 125.323 19.9309 125.323 19.0982C125.323 18.2568 125.145 17.5152 124.79 16.8733C124.434 16.2228 123.948 15.7154 123.333 15.3511C122.717 14.9781 122.006 14.7916 121.199 14.7916C120.401 14.7916 119.69 14.9781 119.065 15.3511C118.441 15.7154 117.951 16.2228 117.595 16.8733C117.239 17.5239 117.061 18.2655 117.061 19.0982C117.061 19.9309 117.239 20.6725 117.595 21.323C117.951 21.9735 118.441 22.4853 119.065 22.8583C119.69 23.2226 120.401 23.4047 121.199 23.4047Z" fill="black" fill-opacity="0.2"/>
<path d="M120.275 26.176C119.043 26.176 117.924 25.8724 116.918 25.2653C115.921 24.6494 115.127 23.8081 114.537 22.7412C113.956 21.6743 113.666 20.4556 113.666 19.0852C113.666 17.732 113.948 16.5264 114.511 15.4682C115.084 14.4013 115.869 13.5599 116.866 12.9441C117.864 12.3282 119 12.0203 120.275 12.0203C121.316 12.0203 122.274 12.2372 123.15 12.6709C124.027 13.1046 124.72 13.7074 125.232 14.4794V12.4367H128.472V25.7597H125.232V23.6259C124.642 24.4326 123.918 25.0614 123.059 25.5125C122.209 25.9548 121.281 26.176 120.275 26.176ZM121.199 23.4047C122.006 23.4047 122.717 23.2226 123.333 22.8583C123.948 22.4853 124.434 21.9735 124.79 21.323C125.145 20.6725 125.323 19.9309 125.323 19.0982C125.323 18.2568 125.145 17.5152 124.79 16.8733C124.434 16.2228 123.948 15.7154 123.333 15.3511C122.717 14.9781 122.006 14.7916 121.199 14.7916C120.401 14.7916 119.69 14.9781 119.065 15.3511C118.441 15.7154 117.951 16.2228 117.595 16.8733C117.239 17.5239 117.061 18.2655 117.061 19.0982C117.061 19.9309 117.239 20.6725 117.595 21.323C117.951 21.9735 118.441 22.4853 119.065 22.8583C119.69 23.2226 120.401 23.4047 121.199 23.4047Z" fill="black" fill-opacity="0.2"/>
<path d="M120.275 26.176C119.043 26.176 117.924 25.8724 116.918 25.2653C115.921 24.6494 115.127 23.8081 114.537 22.7412C113.956 21.6743 113.666 20.4556 113.666 19.0852C113.666 17.732 113.948 16.5264 114.511 15.4682C115.084 14.4013 115.869 13.5599 116.866 12.9441C117.864 12.3282 119 12.0203 120.275 12.0203C121.316 12.0203 122.274 12.2372 123.15 12.6709C124.027 13.1046 124.72 13.7074 125.232 14.4794V12.4367H128.472V25.7597H125.232V23.6259C124.642 24.4326 123.918 25.0614 123.059 25.5125C122.209 25.9548 121.281 26.176 120.275 26.176ZM121.199 23.4047C122.006 23.4047 122.717 23.2226 123.333 22.8583C123.948 22.4853 124.434 21.9735 124.79 21.323C125.145 20.6725 125.323 19.9309 125.323 19.0982C125.323 18.2568 125.145 17.5152 124.79 16.8733C124.434 16.2228 123.948 15.7154 123.333 15.3511C122.717 14.9781 122.006 14.7916 121.199 14.7916C120.401 14.7916 119.69 14.9781 119.065 15.3511C118.441 15.7154 117.951 16.2228 117.595 16.8733C117.239 17.5239 117.061 18.2655 117.061 19.0982C117.061 19.9309 117.239 20.6725 117.595 21.323C117.951 21.9735 118.441 22.4853 119.065 22.8583C119.69 23.2226 120.401 23.4047 121.199 23.4047Z" fill="black" fill-opacity="0.2"/>
<path d="M107.303 25.7591V12.4362H110.543V25.7591H107.303ZM108.93 9.7039C108.574 9.7039 108.245 9.61716 107.941 9.44368C107.646 9.26153 107.408 9.023 107.225 8.72809C107.052 8.42451 106.965 8.09057 106.965 7.72627C106.965 7.37064 107.052 7.04537 107.225 6.75046C107.408 6.45555 107.646 6.22136 107.941 6.04788C108.245 5.86573 108.574 5.77466 108.93 5.77466C109.294 5.77466 109.619 5.86573 109.906 6.04788C110.201 6.22136 110.435 6.45555 110.608 6.75046C110.79 7.04537 110.881 7.37064 110.881 7.72627C110.881 8.09057 110.79 8.42451 110.608 8.72809C110.435 9.023 110.201 9.26153 109.906 9.44368C109.619 9.61716 109.294 9.7039 108.93 9.7039Z" fill="#00481D"/>
<path d="M107.303 25.7591V12.4362H110.543V25.7591H107.303ZM108.93 9.7039C108.574 9.7039 108.245 9.61716 107.941 9.44368C107.646 9.26153 107.408 9.023 107.225 8.72809C107.052 8.42451 106.965 8.09057 106.965 7.72627C106.965 7.37064 107.052 7.04537 107.225 6.75046C107.408 6.45555 107.646 6.22136 107.941 6.04788C108.245 5.86573 108.574 5.77466 108.93 5.77466C109.294 5.77466 109.619 5.86573 109.906 6.04788C110.201 6.22136 110.435 6.45555 110.608 6.75046C110.79 7.04537 110.881 7.37064 110.881 7.72627C110.881 8.09057 110.79 8.42451 110.608 8.72809C110.435 9.023 110.201 9.26153 109.906 9.44368C109.619 9.61716 109.294 9.7039 108.93 9.7039Z" fill="black" fill-opacity="0.2"/>
<path d="M107.303 25.7591V12.4362H110.543V25.7591H107.303ZM108.93 9.7039C108.574 9.7039 108.245 9.61716 107.941 9.44368C107.646 9.26153 107.408 9.023 107.225 8.72809C107.052 8.42451 106.965 8.09057 106.965 7.72627C106.965 7.37064 107.052 7.04537 107.225 6.75046C107.408 6.45555 107.646 6.22136 107.941 6.04788C108.245 5.86573 108.574 5.77466 108.93 5.77466C109.294 5.77466 109.619 5.86573 109.906 6.04788C110.201 6.22136 110.435 6.45555 110.608 6.75046C110.79 7.04537 110.881 7.37064 110.881 7.72627C110.881 8.09057 110.79 8.42451 110.608 8.72809C110.435 9.023 110.201 9.26153 109.906 9.44368C109.619 9.61716 109.294 9.7039 108.93 9.7039Z" fill="black" fill-opacity="0.2"/>
<path d="M107.303 25.7591V12.4362H110.543V25.7591H107.303ZM108.93 9.7039C108.574 9.7039 108.245 9.61716 107.941 9.44368C107.646 9.26153 107.408 9.023 107.225 8.72809C107.052 8.42451 106.965 8.09057 106.965 7.72627C106.965 7.37064 107.052 7.04537 107.225 6.75046C107.408 6.45555 107.646 6.22136 107.941 6.04788C108.245 5.86573 108.574 5.77466 108.93 5.77466C109.294 5.77466 109.619 5.86573 109.906 6.04788C110.201 6.22136 110.435 6.45555 110.608 6.75046C110.79 7.04537 110.881 7.37064 110.881 7.72627C110.881 8.09057 110.79 8.42451 110.608 8.72809C110.435 9.023 110.201 9.26153 109.906 9.44368C109.619 9.61716 109.294 9.7039 108.93 9.7039Z" fill="black" fill-opacity="0.2"/>
<path d="M107.303 25.7591V12.4362H110.543V25.7591H107.303ZM108.93 9.7039C108.574 9.7039 108.245 9.61716 107.941 9.44368C107.646 9.26153 107.408 9.023 107.225 8.72809C107.052 8.42451 106.965 8.09057 106.965 7.72627C106.965 7.37064 107.052 7.04537 107.225 6.75046C107.408 6.45555 107.646 6.22136 107.941 6.04788C108.245 5.86573 108.574 5.77466 108.93 5.77466C109.294 5.77466 109.619 5.86573 109.906 6.04788C110.201 6.22136 110.435 6.45555 110.608 6.75046C110.79 7.04537 110.881 7.37064 110.881 7.72627C110.881 8.09057 110.79 8.42451 110.608 8.72809C110.435 9.023 110.201 9.26153 109.906 9.44368C109.619 9.61716 109.294 9.7039 108.93 9.7039Z" fill="black" fill-opacity="0.2"/>
<path d="M107.303 25.7591V12.4362H110.543V25.7591H107.303ZM108.93 9.7039C108.574 9.7039 108.245 9.61716 107.941 9.44368C107.646 9.26153 107.408 9.023 107.225 8.72809C107.052 8.42451 106.965 8.09057 106.965 7.72627C106.965 7.37064 107.052 7.04537 107.225 6.75046C107.408 6.45555 107.646 6.22136 107.941 6.04788C108.245 5.86573 108.574 5.77466 108.93 5.77466C109.294 5.77466 109.619 5.86573 109.906 6.04788C110.201 6.22136 110.435 6.45555 110.608 6.75046C110.79 7.04537 110.881 7.37064 110.881 7.72627C110.881 8.09057 110.79 8.42451 110.608 8.72809C110.435 9.023 110.201 9.26153 109.906 9.44368C109.619 9.61716 109.294 9.7039 108.93 9.7039Z" fill="black" fill-opacity="0.2"/>
<path d="M107.303 25.7591V12.4362H110.543V25.7591H107.303ZM108.93 9.7039C108.574 9.7039 108.245 9.61716 107.941 9.44368C107.646 9.26153 107.408 9.023 107.225 8.72809C107.052 8.42451 106.965 8.09057 106.965 7.72627C106.965 7.37064 107.052 7.04537 107.225 6.75046C107.408 6.45555 107.646 6.22136 107.941 6.04788C108.245 5.86573 108.574 5.77466 108.93 5.77466C109.294 5.77466 109.619 5.86573 109.906 6.04788C110.201 6.22136 110.435 6.45555 110.608 6.75046C110.79 7.04537 110.881 7.37064 110.881 7.72627C110.881 8.09057 110.79 8.42451 110.608 8.72809C110.435 9.023 110.201 9.26153 109.906 9.44368C109.619 9.61716 109.294 9.7039 108.93 9.7039Z" fill="black" fill-opacity="0.2"/>
<path d="M107.303 25.7591V12.4362H110.543V25.7591H107.303ZM108.93 9.7039C108.574 9.7039 108.245 9.61716 107.941 9.44368C107.646 9.26153 107.408 9.023 107.225 8.72809C107.052 8.42451 106.965 8.09057 106.965 7.72627C106.965 7.37064 107.052 7.04537 107.225 6.75046C107.408 6.45555 107.646 6.22136 107.941 6.04788C108.245 5.86573 108.574 5.77466 108.93 5.77466C109.294 5.77466 109.619 5.86573 109.906 6.04788C110.201 6.22136 110.435 6.45555 110.608 6.75046C110.79 7.04537 110.881 7.37064 110.881 7.72627C110.881 8.09057 110.79 8.42451 110.608 8.72809C110.435 9.023 110.201 9.26153 109.906 9.44368C109.619 9.61716 109.294 9.7039 108.93 9.7039Z" fill="black" fill-opacity="0.2"/>
<path d="M107.303 25.7591V12.4362H110.543V25.7591H107.303ZM108.93 9.7039C108.574 9.7039 108.245 9.61716 107.941 9.44368C107.646 9.26153 107.408 9.023 107.225 8.72809C107.052 8.42451 106.965 8.09057 106.965 7.72627C106.965 7.37064 107.052 7.04537 107.225 6.75046C107.408 6.45555 107.646 6.22136 107.941 6.04788C108.245 5.86573 108.574 5.77466 108.93 5.77466C109.294 5.77466 109.619 5.86573 109.906 6.04788C110.201 6.22136 110.435 6.45555 110.608 6.75046C110.79 7.04537 110.881 7.37064 110.881 7.72627C110.881 8.09057 110.79 8.42451 110.608 8.72809C110.435 9.023 110.201 9.26153 109.906 9.44368C109.619 9.61716 109.294 9.7039 108.93 9.7039Z" fill="black" fill-opacity="0.2"/>
<path d="M107.303 25.7591V12.4362H110.543V25.7591H107.303ZM108.93 9.7039C108.574 9.7039 108.245 9.61716 107.941 9.44368C107.646 9.26153 107.408 9.023 107.225 8.72809C107.052 8.42451 106.965 8.09057 106.965 7.72627C106.965 7.37064 107.052 7.04537 107.225 6.75046C107.408 6.45555 107.646 6.22136 107.941 6.04788C108.245 5.86573 108.574 5.77466 108.93 5.77466C109.294 5.77466 109.619 5.86573 109.906 6.04788C110.201 6.22136 110.435 6.45555 110.608 6.75046C110.79 7.04537 110.881 7.37064 110.881 7.72627C110.881 8.09057 110.79 8.42451 110.608 8.72809C110.435 9.023 110.201 9.26153 109.906 9.44368C109.619 9.61716 109.294 9.7039 108.93 9.7039Z" fill="black" fill-opacity="0.2"/>
<path d="M107.303 25.7591V12.4362H110.543V25.7591H107.303ZM108.93 9.7039C108.574 9.7039 108.245 9.61716 107.941 9.44368C107.646 9.26153 107.408 9.023 107.225 8.72809C107.052 8.42451 106.965 8.09057 106.965 7.72627C106.965 7.37064 107.052 7.04537 107.225 6.75046C107.408 6.45555 107.646 6.22136 107.941 6.04788C108.245 5.86573 108.574 5.77466 108.93 5.77466C109.294 5.77466 109.619 5.86573 109.906 6.04788C110.201 6.22136 110.435 6.45555 110.608 6.75046C110.79 7.04537 110.881 7.37064 110.881 7.72627C110.881 8.09057 110.79 8.42451 110.608 8.72809C110.435 9.023 110.201 9.26153 109.906 9.44368C109.619 9.61716 109.294 9.7039 108.93 9.7039Z" fill="black" fill-opacity="0.2"/>
<path d="M100.603 25.7597V4.17596H103.83V25.7597H100.603Z" fill="#00481D"/>
<path d="M100.603 25.7597V4.17596H103.83V25.7597H100.603Z" fill="black" fill-opacity="0.2"/>
<path d="M100.603 25.7597V4.17596H103.83V25.7597H100.603Z" fill="black" fill-opacity="0.2"/>
<path d="M100.603 25.7597V4.17596H103.83V25.7597H100.603Z" fill="black" fill-opacity="0.2"/>
<path d="M100.603 25.7597V4.17596H103.83V25.7597H100.603Z" fill="black" fill-opacity="0.2"/>
<path d="M100.603 25.7597V4.17596H103.83V25.7597H100.603Z" fill="black" fill-opacity="0.2"/>
<path d="M100.603 25.7597V4.17596H103.83V25.7597H100.603Z" fill="black" fill-opacity="0.2"/>
<path d="M100.603 25.7597V4.17596H103.83V25.7597H100.603Z" fill="black" fill-opacity="0.2"/>
<path d="M100.603 25.7597V4.17596H103.83V25.7597H100.603Z" fill="black" fill-opacity="0.2"/>
<path d="M100.603 25.7597V4.17596H103.83V25.7597H100.603Z" fill="black" fill-opacity="0.2"/>
<path d="M100.603 25.7597V4.17596H103.83V25.7597H100.603Z" fill="black" fill-opacity="0.2"/>
<path d="M90.8524 26.176C89.4299 26.176 88.1549 25.8681 87.0273 25.2522C85.9084 24.6364 85.0193 23.795 84.3601 22.7282C83.7095 21.6613 83.3843 20.46 83.3843 19.1242C83.3843 18.1354 83.5708 17.2116 83.9437 16.3529C84.3167 15.4942 84.8328 14.7396 85.492 14.089C86.1512 13.4385 86.9189 12.9311 87.7949 12.5668C88.671 12.2025 89.6164 12.0203 90.6313 12.0203C92.0191 12.0203 93.2334 12.3066 94.2743 12.879C95.3238 13.4515 96.1391 14.2495 96.7203 15.273C97.3101 16.2965 97.605 17.4892 97.605 18.851C97.605 18.9637 97.6007 19.0591 97.592 19.1372C97.5833 19.2066 97.566 19.328 97.54 19.5015H86.689C86.689 20.3082 86.8712 21.0194 87.2355 21.6353C87.5998 22.2424 88.1072 22.7195 88.7577 23.0664C89.4169 23.4047 90.1715 23.5739 91.0216 23.5739C91.8282 23.5739 92.5438 23.4134 93.1683 23.0925C93.8015 22.7629 94.374 22.2641 94.8858 21.5962L97.2407 22.8062C96.6075 23.8644 95.7271 24.6928 94.5995 25.2913C93.4806 25.8811 92.2316 26.176 90.8524 26.176ZM86.8321 17.4718H94.3914C94.2786 16.8647 94.0487 16.3399 93.7018 15.8975C93.3548 15.4552 92.9168 15.1125 92.3877 14.8697C91.8586 14.6181 91.2688 14.4924 90.6182 14.4924C89.933 14.4924 89.3215 14.6138 88.7837 14.8567C88.246 15.0995 87.8079 15.4421 87.4696 15.8845C87.1314 16.3269 86.9189 16.856 86.8321 17.4718Z" fill="#00481D"/>
<path d="M90.8524 26.176C89.4299 26.176 88.1549 25.8681 87.0273 25.2522C85.9084 24.6364 85.0193 23.795 84.3601 22.7282C83.7095 21.6613 83.3843 20.46 83.3843 19.1242C83.3843 18.1354 83.5708 17.2116 83.9437 16.3529C84.3167 15.4942 84.8328 14.7396 85.492 14.089C86.1512 13.4385 86.9189 12.9311 87.7949 12.5668C88.671 12.2025 89.6164 12.0203 90.6313 12.0203C92.0191 12.0203 93.2334 12.3066 94.2743 12.879C95.3238 13.4515 96.1391 14.2495 96.7203 15.273C97.3101 16.2965 97.605 17.4892 97.605 18.851C97.605 18.9637 97.6007 19.0591 97.592 19.1372C97.5833 19.2066 97.566 19.328 97.54 19.5015H86.689C86.689 20.3082 86.8712 21.0194 87.2355 21.6353C87.5998 22.2424 88.1072 22.7195 88.7577 23.0664C89.4169 23.4047 90.1715 23.5739 91.0216 23.5739C91.8282 23.5739 92.5438 23.4134 93.1683 23.0925C93.8015 22.7629 94.374 22.2641 94.8858 21.5962L97.2407 22.8062C96.6075 23.8644 95.7271 24.6928 94.5995 25.2913C93.4806 25.8811 92.2316 26.176 90.8524 26.176ZM86.8321 17.4718H94.3914C94.2786 16.8647 94.0487 16.3399 93.7018 15.8975C93.3548 15.4552 92.9168 15.1125 92.3877 14.8697C91.8586 14.6181 91.2688 14.4924 90.6182 14.4924C89.933 14.4924 89.3215 14.6138 88.7837 14.8567C88.246 15.0995 87.8079 15.4421 87.4696 15.8845C87.1314 16.3269 86.9189 16.856 86.8321 17.4718Z" fill="black" fill-opacity="0.2"/>
<path d="M90.8524 26.176C89.4299 26.176 88.1549 25.8681 87.0273 25.2522C85.9084 24.6364 85.0193 23.795 84.3601 22.7282C83.7095 21.6613 83.3843 20.46 83.3843 19.1242C83.3843 18.1354 83.5708 17.2116 83.9437 16.3529C84.3167 15.4942 84.8328 14.7396 85.492 14.089C86.1512 13.4385 86.9189 12.9311 87.7949 12.5668C88.671 12.2025 89.6164 12.0203 90.6313 12.0203C92.0191 12.0203 93.2334 12.3066 94.2743 12.879C95.3238 13.4515 96.1391 14.2495 96.7203 15.273C97.3101 16.2965 97.605 17.4892 97.605 18.851C97.605 18.9637 97.6007 19.0591 97.592 19.1372C97.5833 19.2066 97.566 19.328 97.54 19.5015H86.689C86.689 20.3082 86.8712 21.0194 87.2355 21.6353C87.5998 22.2424 88.1072 22.7195 88.7577 23.0664C89.4169 23.4047 90.1715 23.5739 91.0216 23.5739C91.8282 23.5739 92.5438 23.4134 93.1683 23.0925C93.8015 22.7629 94.374 22.2641 94.8858 21.5962L97.2407 22.8062C96.6075 23.8644 95.7271 24.6928 94.5995 25.2913C93.4806 25.8811 92.2316 26.176 90.8524 26.176ZM86.8321 17.4718H94.3914C94.2786 16.8647 94.0487 16.3399 93.7018 15.8975C93.3548 15.4552 92.9168 15.1125 92.3877 14.8697C91.8586 14.6181 91.2688 14.4924 90.6182 14.4924C89.933 14.4924 89.3215 14.6138 88.7837 14.8567C88.246 15.0995 87.8079 15.4421 87.4696 15.8845C87.1314 16.3269 86.9189 16.856 86.8321 17.4718Z" fill="black" fill-opacity="0.2"/>
<path d="M90.8524 26.176C89.4299 26.176 88.1549 25.8681 87.0273 25.2522C85.9084 24.6364 85.0193 23.795 84.3601 22.7282C83.7095 21.6613 83.3843 20.46 83.3843 19.1242C83.3843 18.1354 83.5708 17.2116 83.9437 16.3529C84.3167 15.4942 84.8328 14.7396 85.492 14.089C86.1512 13.4385 86.9189 12.9311 87.7949 12.5668C88.671 12.2025 89.6164 12.0203 90.6313 12.0203C92.0191 12.0203 93.2334 12.3066 94.2743 12.879C95.3238 13.4515 96.1391 14.2495 96.7203 15.273C97.3101 16.2965 97.605 17.4892 97.605 18.851C97.605 18.9637 97.6007 19.0591 97.592 19.1372C97.5833 19.2066 97.566 19.328 97.54 19.5015H86.689C86.689 20.3082 86.8712 21.0194 87.2355 21.6353C87.5998 22.2424 88.1072 22.7195 88.7577 23.0664C89.4169 23.4047 90.1715 23.5739 91.0216 23.5739C91.8282 23.5739 92.5438 23.4134 93.1683 23.0925C93.8015 22.7629 94.374 22.2641 94.8858 21.5962L97.2407 22.8062C96.6075 23.8644 95.7271 24.6928 94.5995 25.2913C93.4806 25.8811 92.2316 26.176 90.8524 26.176ZM86.8321 17.4718H94.3914C94.2786 16.8647 94.0487 16.3399 93.7018 15.8975C93.3548 15.4552 92.9168 15.1125 92.3877 14.8697C91.8586 14.6181 91.2688 14.4924 90.6182 14.4924C89.933 14.4924 89.3215 14.6138 88.7837 14.8567C88.246 15.0995 87.8079 15.4421 87.4696 15.8845C87.1314 16.3269 86.9189 16.856 86.8321 17.4718Z" fill="black" fill-opacity="0.2"/>
<path d="M90.8524 26.176C89.4299 26.176 88.1549 25.8681 87.0273 25.2522C85.9084 24.6364 85.0193 23.795 84.3601 22.7282C83.7095 21.6613 83.3843 20.46 83.3843 19.1242C83.3843 18.1354 83.5708 17.2116 83.9437 16.3529C84.3167 15.4942 84.8328 14.7396 85.492 14.089C86.1512 13.4385 86.9189 12.9311 87.7949 12.5668C88.671 12.2025 89.6164 12.0203 90.6313 12.0203C92.0191 12.0203 93.2334 12.3066 94.2743 12.879C95.3238 13.4515 96.1391 14.2495 96.7203 15.273C97.3101 16.2965 97.605 17.4892 97.605 18.851C97.605 18.9637 97.6007 19.0591 97.592 19.1372C97.5833 19.2066 97.566 19.328 97.54 19.5015H86.689C86.689 20.3082 86.8712 21.0194 87.2355 21.6353C87.5998 22.2424 88.1072 22.7195 88.7577 23.0664C89.4169 23.4047 90.1715 23.5739 91.0216 23.5739C91.8282 23.5739 92.5438 23.4134 93.1683 23.0925C93.8015 22.7629 94.374 22.2641 94.8858 21.5962L97.2407 22.8062C96.6075 23.8644 95.7271 24.6928 94.5995 25.2913C93.4806 25.8811 92.2316 26.176 90.8524 26.176ZM86.8321 17.4718H94.3914C94.2786 16.8647 94.0487 16.3399 93.7018 15.8975C93.3548 15.4552 92.9168 15.1125 92.3877 14.8697C91.8586 14.6181 91.2688 14.4924 90.6182 14.4924C89.933 14.4924 89.3215 14.6138 88.7837 14.8567C88.246 15.0995 87.8079 15.4421 87.4696 15.8845C87.1314 16.3269 86.9189 16.856 86.8321 17.4718Z" fill="black" fill-opacity="0.2"/>
<path d="M90.8524 26.176C89.4299 26.176 88.1549 25.8681 87.0273 25.2522C85.9084 24.6364 85.0193 23.795 84.3601 22.7282C83.7095 21.6613 83.3843 20.46 83.3843 19.1242C83.3843 18.1354 83.5708 17.2116 83.9437 16.3529C84.3167 15.4942 84.8328 14.7396 85.492 14.089C86.1512 13.4385 86.9189 12.9311 87.7949 12.5668C88.671 12.2025 89.6164 12.0203 90.6313 12.0203C92.0191 12.0203 93.2334 12.3066 94.2743 12.879C95.3238 13.4515 96.1391 14.2495 96.7203 15.273C97.3101 16.2965 97.605 17.4892 97.605 18.851C97.605 18.9637 97.6007 19.0591 97.592 19.1372C97.5833 19.2066 97.566 19.328 97.54 19.5015H86.689C86.689 20.3082 86.8712 21.0194 87.2355 21.6353C87.5998 22.2424 88.1072 22.7195 88.7577 23.0664C89.4169 23.4047 90.1715 23.5739 91.0216 23.5739C91.8282 23.5739 92.5438 23.4134 93.1683 23.0925C93.8015 22.7629 94.374 22.2641 94.8858 21.5962L97.2407 22.8062C96.6075 23.8644 95.7271 24.6928 94.5995 25.2913C93.4806 25.8811 92.2316 26.176 90.8524 26.176ZM86.8321 17.4718H94.3914C94.2786 16.8647 94.0487 16.3399 93.7018 15.8975C93.3548 15.4552 92.9168 15.1125 92.3877 14.8697C91.8586 14.6181 91.2688 14.4924 90.6182 14.4924C89.933 14.4924 89.3215 14.6138 88.7837 14.8567C88.246 15.0995 87.8079 15.4421 87.4696 15.8845C87.1314 16.3269 86.9189 16.856 86.8321 17.4718Z" fill="black" fill-opacity="0.2"/>
<path d="M90.8524 26.176C89.4299 26.176 88.1549 25.8681 87.0273 25.2522C85.9084 24.6364 85.0193 23.795 84.3601 22.7282C83.7095 21.6613 83.3843 20.46 83.3843 19.1242C83.3843 18.1354 83.5708 17.2116 83.9437 16.3529C84.3167 15.4942 84.8328 14.7396 85.492 14.089C86.1512 13.4385 86.9189 12.9311 87.7949 12.5668C88.671 12.2025 89.6164 12.0203 90.6313 12.0203C92.0191 12.0203 93.2334 12.3066 94.2743 12.879C95.3238 13.4515 96.1391 14.2495 96.7203 15.273C97.3101 16.2965 97.605 17.4892 97.605 18.851C97.605 18.9637 97.6007 19.0591 97.592 19.1372C97.5833 19.2066 97.566 19.328 97.54 19.5015H86.689C86.689 20.3082 86.8712 21.0194 87.2355 21.6353C87.5998 22.2424 88.1072 22.7195 88.7577 23.0664C89.4169 23.4047 90.1715 23.5739 91.0216 23.5739C91.8282 23.5739 92.5438 23.4134 93.1683 23.0925C93.8015 22.7629 94.374 22.2641 94.8858 21.5962L97.2407 22.8062C96.6075 23.8644 95.7271 24.6928 94.5995 25.2913C93.4806 25.8811 92.2316 26.176 90.8524 26.176ZM86.8321 17.4718H94.3914C94.2786 16.8647 94.0487 16.3399 93.7018 15.8975C93.3548 15.4552 92.9168 15.1125 92.3877 14.8697C91.8586 14.6181 91.2688 14.4924 90.6182 14.4924C89.933 14.4924 89.3215 14.6138 88.7837 14.8567C88.246 15.0995 87.8079 15.4421 87.4696 15.8845C87.1314 16.3269 86.9189 16.856 86.8321 17.4718Z" fill="black" fill-opacity="0.2"/>
<path d="M90.8524 26.176C89.4299 26.176 88.1549 25.8681 87.0273 25.2522C85.9084 24.6364 85.0193 23.795 84.3601 22.7282C83.7095 21.6613 83.3843 20.46 83.3843 19.1242C83.3843 18.1354 83.5708 17.2116 83.9437 16.3529C84.3167 15.4942 84.8328 14.7396 85.492 14.089C86.1512 13.4385 86.9189 12.9311 87.7949 12.5668C88.671 12.2025 89.6164 12.0203 90.6313 12.0203C92.0191 12.0203 93.2334 12.3066 94.2743 12.879C95.3238 13.4515 96.1391 14.2495 96.7203 15.273C97.3101 16.2965 97.605 17.4892 97.605 18.851C97.605 18.9637 97.6007 19.0591 97.592 19.1372C97.5833 19.2066 97.566 19.328 97.54 19.5015H86.689C86.689 20.3082 86.8712 21.0194 87.2355 21.6353C87.5998 22.2424 88.1072 22.7195 88.7577 23.0664C89.4169 23.4047 90.1715 23.5739 91.0216 23.5739C91.8282 23.5739 92.5438 23.4134 93.1683 23.0925C93.8015 22.7629 94.374 22.2641 94.8858 21.5962L97.2407 22.8062C96.6075 23.8644 95.7271 24.6928 94.5995 25.2913C93.4806 25.8811 92.2316 26.176 90.8524 26.176ZM86.8321 17.4718H94.3914C94.2786 16.8647 94.0487 16.3399 93.7018 15.8975C93.3548 15.4552 92.9168 15.1125 92.3877 14.8697C91.8586 14.6181 91.2688 14.4924 90.6182 14.4924C89.933 14.4924 89.3215 14.6138 88.7837 14.8567C88.246 15.0995 87.8079 15.4421 87.4696 15.8845C87.1314 16.3269 86.9189 16.856 86.8321 17.4718Z" fill="black" fill-opacity="0.2"/>
<path d="M90.8524 26.176C89.4299 26.176 88.1549 25.8681 87.0273 25.2522C85.9084 24.6364 85.0193 23.795 84.3601 22.7282C83.7095 21.6613 83.3843 20.46 83.3843 19.1242C83.3843 18.1354 83.5708 17.2116 83.9437 16.3529C84.3167 15.4942 84.8328 14.7396 85.492 14.089C86.1512 13.4385 86.9189 12.9311 87.7949 12.5668C88.671 12.2025 89.6164 12.0203 90.6313 12.0203C92.0191 12.0203 93.2334 12.3066 94.2743 12.879C95.3238 13.4515 96.1391 14.2495 96.7203 15.273C97.3101 16.2965 97.605 17.4892 97.605 18.851C97.605 18.9637 97.6007 19.0591 97.592 19.1372C97.5833 19.2066 97.566 19.328 97.54 19.5015H86.689C86.689 20.3082 86.8712 21.0194 87.2355 21.6353C87.5998 22.2424 88.1072 22.7195 88.7577 23.0664C89.4169 23.4047 90.1715 23.5739 91.0216 23.5739C91.8282 23.5739 92.5438 23.4134 93.1683 23.0925C93.8015 22.7629 94.374 22.2641 94.8858 21.5962L97.2407 22.8062C96.6075 23.8644 95.7271 24.6928 94.5995 25.2913C93.4806 25.8811 92.2316 26.176 90.8524 26.176ZM86.8321 17.4718H94.3914C94.2786 16.8647 94.0487 16.3399 93.7018 15.8975C93.3548 15.4552 92.9168 15.1125 92.3877 14.8697C91.8586 14.6181 91.2688 14.4924 90.6182 14.4924C89.933 14.4924 89.3215 14.6138 88.7837 14.8567C88.246 15.0995 87.8079 15.4421 87.4696 15.8845C87.1314 16.3269 86.9189 16.856 86.8321 17.4718Z" fill="black" fill-opacity="0.2"/>
<path d="M90.8524 26.176C89.4299 26.176 88.1549 25.8681 87.0273 25.2522C85.9084 24.6364 85.0193 23.795 84.3601 22.7282C83.7095 21.6613 83.3843 20.46 83.3843 19.1242C83.3843 18.1354 83.5708 17.2116 83.9437 16.3529C84.3167 15.4942 84.8328 14.7396 85.492 14.089C86.1512 13.4385 86.9189 12.9311 87.7949 12.5668C88.671 12.2025 89.6164 12.0203 90.6313 12.0203C92.0191 12.0203 93.2334 12.3066 94.2743 12.879C95.3238 13.4515 96.1391 14.2495 96.7203 15.273C97.3101 16.2965 97.605 17.4892 97.605 18.851C97.605 18.9637 97.6007 19.0591 97.592 19.1372C97.5833 19.2066 97.566 19.328 97.54 19.5015H86.689C86.689 20.3082 86.8712 21.0194 87.2355 21.6353C87.5998 22.2424 88.1072 22.7195 88.7577 23.0664C89.4169 23.4047 90.1715 23.5739 91.0216 23.5739C91.8282 23.5739 92.5438 23.4134 93.1683 23.0925C93.8015 22.7629 94.374 22.2641 94.8858 21.5962L97.2407 22.8062C96.6075 23.8644 95.7271 24.6928 94.5995 25.2913C93.4806 25.8811 92.2316 26.176 90.8524 26.176ZM86.8321 17.4718H94.3914C94.2786 16.8647 94.0487 16.3399 93.7018 15.8975C93.3548 15.4552 92.9168 15.1125 92.3877 14.8697C91.8586 14.6181 91.2688 14.4924 90.6182 14.4924C89.933 14.4924 89.3215 14.6138 88.7837 14.8567C88.246 15.0995 87.8079 15.4421 87.4696 15.8845C87.1314 16.3269 86.9189 16.856 86.8321 17.4718Z" fill="black" fill-opacity="0.2"/>
<path d="M90.8524 26.176C89.4299 26.176 88.1549 25.8681 87.0273 25.2522C85.9084 24.6364 85.0193 23.795 84.3601 22.7282C83.7095 21.6613 83.3843 20.46 83.3843 19.1242C83.3843 18.1354 83.5708 17.2116 83.9437 16.3529C84.3167 15.4942 84.8328 14.7396 85.492 14.089C86.1512 13.4385 86.9189 12.9311 87.7949 12.5668C88.671 12.2025 89.6164 12.0203 90.6313 12.0203C92.0191 12.0203 93.2334 12.3066 94.2743 12.879C95.3238 13.4515 96.1391 14.2495 96.7203 15.273C97.3101 16.2965 97.605 17.4892 97.605 18.851C97.605 18.9637 97.6007 19.0591 97.592 19.1372C97.5833 19.2066 97.566 19.328 97.54 19.5015H86.689C86.689 20.3082 86.8712 21.0194 87.2355 21.6353C87.5998 22.2424 88.1072 22.7195 88.7577 23.0664C89.4169 23.4047 90.1715 23.5739 91.0216 23.5739C91.8282 23.5739 92.5438 23.4134 93.1683 23.0925C93.8015 22.7629 94.374 22.2641 94.8858 21.5962L97.2407 22.8062C96.6075 23.8644 95.7271 24.6928 94.5995 25.2913C93.4806 25.8811 92.2316 26.176 90.8524 26.176ZM86.8321 17.4718H94.3914C94.2786 16.8647 94.0487 16.3399 93.7018 15.8975C93.3548 15.4552 92.9168 15.1125 92.3877 14.8697C91.8586 14.6181 91.2688 14.4924 90.6182 14.4924C89.933 14.4924 89.3215 14.6138 88.7837 14.8567C88.246 15.0995 87.8079 15.4421 87.4696 15.8845C87.1314 16.3269 86.9189 16.856 86.8321 17.4718Z" fill="black" fill-opacity="0.2"/>
<path d="M78.8756 26.1764C77.6699 26.1764 76.7288 25.7861 76.0522 25.0055C75.3844 24.2248 75.0504 23.1276 75.0504 21.7137V14.8961H73.4241V12.4371H75.0504V7.45398H78.2901V12.4371H81.3606V14.8961H78.2901V21.4926C78.2901 22.0737 78.4072 22.5204 78.6414 22.8327C78.8756 23.1363 79.2095 23.288 79.6432 23.288C80.0942 23.288 80.5062 23.1493 80.8792 22.8717L81.6989 25.4608C81.3086 25.6864 80.8619 25.8598 80.3588 25.9813C79.8557 26.1114 79.3613 26.1764 78.8756 26.1764Z" fill="#00481D"/>
<path d="M78.8756 26.1764C77.6699 26.1764 76.7288 25.7861 76.0522 25.0055C75.3844 24.2248 75.0504 23.1276 75.0504 21.7137V14.8961H73.4241V12.4371H75.0504V7.45398H78.2901V12.4371H81.3606V14.8961H78.2901V21.4926C78.2901 22.0737 78.4072 22.5204 78.6414 22.8327C78.8756 23.1363 79.2095 23.288 79.6432 23.288C80.0942 23.288 80.5062 23.1493 80.8792 22.8717L81.6989 25.4608C81.3086 25.6864 80.8619 25.8598 80.3588 25.9813C79.8557 26.1114 79.3613 26.1764 78.8756 26.1764Z" fill="black" fill-opacity="0.2"/>
<path d="M78.8756 26.1764C77.6699 26.1764 76.7288 25.7861 76.0522 25.0055C75.3844 24.2248 75.0504 23.1276 75.0504 21.7137V14.8961H73.4241V12.4371H75.0504V7.45398H78.2901V12.4371H81.3606V14.8961H78.2901V21.4926C78.2901 22.0737 78.4072 22.5204 78.6414 22.8327C78.8756 23.1363 79.2095 23.288 79.6432 23.288C80.0942 23.288 80.5062 23.1493 80.8792 22.8717L81.6989 25.4608C81.3086 25.6864 80.8619 25.8598 80.3588 25.9813C79.8557 26.1114 79.3613 26.1764 78.8756 26.1764Z" fill="black" fill-opacity="0.2"/>
<path d="M78.8756 26.1764C77.6699 26.1764 76.7288 25.7861 76.0522 25.0055C75.3844 24.2248 75.0504 23.1276 75.0504 21.7137V14.8961H73.4241V12.4371H75.0504V7.45398H78.2901V12.4371H81.3606V14.8961H78.2901V21.4926C78.2901 22.0737 78.4072 22.5204 78.6414 22.8327C78.8756 23.1363 79.2095 23.288 79.6432 23.288C80.0942 23.288 80.5062 23.1493 80.8792 22.8717L81.6989 25.4608C81.3086 25.6864 80.8619 25.8598 80.3588 25.9813C79.8557 26.1114 79.3613 26.1764 78.8756 26.1764Z" fill="black" fill-opacity="0.2"/>
<path d="M78.8756 26.1764C77.6699 26.1764 76.7288 25.7861 76.0522 25.0055C75.3844 24.2248 75.0504 23.1276 75.0504 21.7137V14.8961H73.4241V12.4371H75.0504V7.45398H78.2901V12.4371H81.3606V14.8961H78.2901V21.4926C78.2901 22.0737 78.4072 22.5204 78.6414 22.8327C78.8756 23.1363 79.2095 23.288 79.6432 23.288C80.0942 23.288 80.5062 23.1493 80.8792 22.8717L81.6989 25.4608C81.3086 25.6864 80.8619 25.8598 80.3588 25.9813C79.8557 26.1114 79.3613 26.1764 78.8756 26.1764Z" fill="black" fill-opacity="0.2"/>
<path d="M78.8756 26.1764C77.6699 26.1764 76.7288 25.7861 76.0522 25.0055C75.3844 24.2248 75.0504 23.1276 75.0504 21.7137V14.8961H73.4241V12.4371H75.0504V7.45398H78.2901V12.4371H81.3606V14.8961H78.2901V21.4926C78.2901 22.0737 78.4072 22.5204 78.6414 22.8327C78.8756 23.1363 79.2095 23.288 79.6432 23.288C80.0942 23.288 80.5062 23.1493 80.8792 22.8717L81.6989 25.4608C81.3086 25.6864 80.8619 25.8598 80.3588 25.9813C79.8557 26.1114 79.3613 26.1764 78.8756 26.1764Z" fill="black" fill-opacity="0.2"/>
<path d="M78.8756 26.1764C77.6699 26.1764 76.7288 25.7861 76.0522 25.0055C75.3844 24.2248 75.0504 23.1276 75.0504 21.7137V14.8961H73.4241V12.4371H75.0504V7.45398H78.2901V12.4371H81.3606V14.8961H78.2901V21.4926C78.2901 22.0737 78.4072 22.5204 78.6414 22.8327C78.8756 23.1363 79.2095 23.288 79.6432 23.288C80.0942 23.288 80.5062 23.1493 80.8792 22.8717L81.6989 25.4608C81.3086 25.6864 80.8619 25.8598 80.3588 25.9813C79.8557 26.1114 79.3613 26.1764 78.8756 26.1764Z" fill="black" fill-opacity="0.2"/>
<path d="M78.8756 26.1764C77.6699 26.1764 76.7288 25.7861 76.0522 25.0055C75.3844 24.2248 75.0504 23.1276 75.0504 21.7137V14.8961H73.4241V12.4371H75.0504V7.45398H78.2901V12.4371H81.3606V14.8961H78.2901V21.4926C78.2901 22.0737 78.4072 22.5204 78.6414 22.8327C78.8756 23.1363 79.2095 23.288 79.6432 23.288C80.0942 23.288 80.5062 23.1493 80.8792 22.8717L81.6989 25.4608C81.3086 25.6864 80.8619 25.8598 80.3588 25.9813C79.8557 26.1114 79.3613 26.1764 78.8756 26.1764Z" fill="black" fill-opacity="0.2"/>
<path d="M78.8756 26.1764C77.6699 26.1764 76.7288 25.7861 76.0522 25.0055C75.3844 24.2248 75.0504 23.1276 75.0504 21.7137V14.8961H73.4241V12.4371H75.0504V7.45398H78.2901V12.4371H81.3606V14.8961H78.2901V21.4926C78.2901 22.0737 78.4072 22.5204 78.6414 22.8327C78.8756 23.1363 79.2095 23.288 79.6432 23.288C80.0942 23.288 80.5062 23.1493 80.8792 22.8717L81.6989 25.4608C81.3086 25.6864 80.8619 25.8598 80.3588 25.9813C79.8557 26.1114 79.3613 26.1764 78.8756 26.1764Z" fill="black" fill-opacity="0.2"/>
<path d="M78.8756 26.1764C77.6699 26.1764 76.7288 25.7861 76.0522 25.0055C75.3844 24.2248 75.0504 23.1276 75.0504 21.7137V14.8961H73.4241V12.4371H75.0504V7.45398H78.2901V12.4371H81.3606V14.8961H78.2901V21.4926C78.2901 22.0737 78.4072 22.5204 78.6414 22.8327C78.8756 23.1363 79.2095 23.288 79.6432 23.288C80.0942 23.288 80.5062 23.1493 80.8792 22.8717L81.6989 25.4608C81.3086 25.6864 80.8619 25.8598 80.3588 25.9813C79.8557 26.1114 79.3613 26.1764 78.8756 26.1764Z" fill="black" fill-opacity="0.2"/>
<path d="M78.8756 26.1764C77.6699 26.1764 76.7288 25.7861 76.0522 25.0055C75.3844 24.2248 75.0504 23.1276 75.0504 21.7137V14.8961H73.4241V12.4371H75.0504V7.45398H78.2901V12.4371H81.3606V14.8961H78.2901V21.4926C78.2901 22.0737 78.4072 22.5204 78.6414 22.8327C78.8756 23.1363 79.2095 23.288 79.6432 23.288C80.0942 23.288 80.5062 23.1493 80.8792 22.8717L81.6989 25.4608C81.3086 25.6864 80.8619 25.8598 80.3588 25.9813C79.8557 26.1114 79.3613 26.1764 78.8756 26.1764Z" fill="black" fill-opacity="0.2"/>
<path d="M65.7751 26.1759C64.6562 26.1759 63.6587 25.9677 62.7826 25.5514C61.9152 25.1263 61.2083 24.5192 60.6619 23.7299L62.093 21.6221C62.6048 22.2987 63.1729 22.8234 63.7975 23.1964C64.4306 23.5694 65.0855 23.7559 65.7621 23.7559C66.1784 23.7559 66.5471 23.6821 66.868 23.5347C67.1889 23.3786 67.4448 23.1574 67.6356 22.8711C67.8264 22.5762 67.9219 22.2293 67.9219 21.8303C67.9219 21.4139 67.8134 21.0887 67.5966 20.8545C67.3797 20.6203 67.0545 20.4078 66.6208 20.217C66.1871 20.0261 65.6406 19.8006 64.9814 19.5404C64.4263 19.3062 63.8972 19.046 63.3941 18.7598C62.891 18.4735 62.4747 18.1136 62.1451 17.6799C61.8242 17.2375 61.6637 16.678 61.6637 16.0015C61.6637 15.2295 61.8762 14.5443 62.3012 13.9458C62.7349 13.3473 63.3247 12.8789 64.0707 12.5406C64.8253 12.2023 65.684 12.0332 66.6468 12.0332C67.3407 12.0332 68.039 12.159 68.7415 12.4105C69.4441 12.6534 70.1467 13.009 70.8493 13.4774L69.6783 15.5201C68.6635 14.6787 67.6616 14.258 66.6728 14.258C66.0917 14.258 65.6233 14.3968 65.2677 14.6744C64.9207 14.9519 64.7472 15.3076 64.7472 15.7413C64.7472 16.0969 64.899 16.4005 65.2026 16.652C65.5062 16.9036 65.8835 17.1247 66.3345 17.3156C66.7856 17.5064 67.2366 17.6885 67.6877 17.862C68.3989 18.1222 69.0234 18.3998 69.5612 18.6947C70.099 18.9896 70.5197 19.3713 70.8232 19.8396C71.1268 20.308 71.2786 20.9325 71.2786 21.7132C71.2786 22.65 71.0531 23.4523 70.6021 24.1202C70.1597 24.7881 69.5265 25.2998 68.7025 25.6554C67.8785 26.0024 66.9027 26.1759 65.7751 26.1759Z" fill="#00481D"/>
<path d="M65.7751 26.1759C64.6562 26.1759 63.6587 25.9677 62.7826 25.5514C61.9152 25.1263 61.2083 24.5192 60.6619 23.7299L62.093 21.6221C62.6048 22.2987 63.1729 22.8234 63.7975 23.1964C64.4306 23.5694 65.0855 23.7559 65.7621 23.7559C66.1784 23.7559 66.5471 23.6821 66.868 23.5347C67.1889 23.3786 67.4448 23.1574 67.6356 22.8711C67.8264 22.5762 67.9219 22.2293 67.9219 21.8303C67.9219 21.4139 67.8134 21.0887 67.5966 20.8545C67.3797 20.6203 67.0545 20.4078 66.6208 20.217C66.1871 20.0261 65.6406 19.8006 64.9814 19.5404C64.4263 19.3062 63.8972 19.046 63.3941 18.7598C62.891 18.4735 62.4747 18.1136 62.1451 17.6799C61.8242 17.2375 61.6637 16.678 61.6637 16.0015C61.6637 15.2295 61.8762 14.5443 62.3012 13.9458C62.7349 13.3473 63.3247 12.8789 64.0707 12.5406C64.8253 12.2023 65.684 12.0332 66.6468 12.0332C67.3407 12.0332 68.039 12.159 68.7415 12.4105C69.4441 12.6534 70.1467 13.009 70.8493 13.4774L69.6783 15.5201C68.6635 14.6787 67.6616 14.258 66.6728 14.258C66.0917 14.258 65.6233 14.3968 65.2677 14.6744C64.9207 14.9519 64.7472 15.3076 64.7472 15.7413C64.7472 16.0969 64.899 16.4005 65.2026 16.652C65.5062 16.9036 65.8835 17.1247 66.3345 17.3156C66.7856 17.5064 67.2366 17.6885 67.6877 17.862C68.3989 18.1222 69.0234 18.3998 69.5612 18.6947C70.099 18.9896 70.5197 19.3713 70.8232 19.8396C71.1268 20.308 71.2786 20.9325 71.2786 21.7132C71.2786 22.65 71.0531 23.4523 70.6021 24.1202C70.1597 24.7881 69.5265 25.2998 68.7025 25.6554C67.8785 26.0024 66.9027 26.1759 65.7751 26.1759Z" fill="black" fill-opacity="0.2"/>
<path d="M65.7751 26.1759C64.6562 26.1759 63.6587 25.9677 62.7826 25.5514C61.9152 25.1263 61.2083 24.5192 60.6619 23.7299L62.093 21.6221C62.6048 22.2987 63.1729 22.8234 63.7975 23.1964C64.4306 23.5694 65.0855 23.7559 65.7621 23.7559C66.1784 23.7559 66.5471 23.6821 66.868 23.5347C67.1889 23.3786 67.4448 23.1574 67.6356 22.8711C67.8264 22.5762 67.9219 22.2293 67.9219 21.8303C67.9219 21.4139 67.8134 21.0887 67.5966 20.8545C67.3797 20.6203 67.0545 20.4078 66.6208 20.217C66.1871 20.0261 65.6406 19.8006 64.9814 19.5404C64.4263 19.3062 63.8972 19.046 63.3941 18.7598C62.891 18.4735 62.4747 18.1136 62.1451 17.6799C61.8242 17.2375 61.6637 16.678 61.6637 16.0015C61.6637 15.2295 61.8762 14.5443 62.3012 13.9458C62.7349 13.3473 63.3247 12.8789 64.0707 12.5406C64.8253 12.2023 65.684 12.0332 66.6468 12.0332C67.3407 12.0332 68.039 12.159 68.7415 12.4105C69.4441 12.6534 70.1467 13.009 70.8493 13.4774L69.6783 15.5201C68.6635 14.6787 67.6616 14.258 66.6728 14.258C66.0917 14.258 65.6233 14.3968 65.2677 14.6744C64.9207 14.9519 64.7472 15.3076 64.7472 15.7413C64.7472 16.0969 64.899 16.4005 65.2026 16.652C65.5062 16.9036 65.8835 17.1247 66.3345 17.3156C66.7856 17.5064 67.2366 17.6885 67.6877 17.862C68.3989 18.1222 69.0234 18.3998 69.5612 18.6947C70.099 18.9896 70.5197 19.3713 70.8232 19.8396C71.1268 20.308 71.2786 20.9325 71.2786 21.7132C71.2786 22.65 71.0531 23.4523 70.6021 24.1202C70.1597 24.7881 69.5265 25.2998 68.7025 25.6554C67.8785 26.0024 66.9027 26.1759 65.7751 26.1759Z" fill="black" fill-opacity="0.2"/>
<path d="M65.7751 26.1759C64.6562 26.1759 63.6587 25.9677 62.7826 25.5514C61.9152 25.1263 61.2083 24.5192 60.6619 23.7299L62.093 21.6221C62.6048 22.2987 63.1729 22.8234 63.7975 23.1964C64.4306 23.5694 65.0855 23.7559 65.7621 23.7559C66.1784 23.7559 66.5471 23.6821 66.868 23.5347C67.1889 23.3786 67.4448 23.1574 67.6356 22.8711C67.8264 22.5762 67.9219 22.2293 67.9219 21.8303C67.9219 21.4139 67.8134 21.0887 67.5966 20.8545C67.3797 20.6203 67.0545 20.4078 66.6208 20.217C66.1871 20.0261 65.6406 19.8006 64.9814 19.5404C64.4263 19.3062 63.8972 19.046 63.3941 18.7598C62.891 18.4735 62.4747 18.1136 62.1451 17.6799C61.8242 17.2375 61.6637 16.678 61.6637 16.0015C61.6637 15.2295 61.8762 14.5443 62.3012 13.9458C62.7349 13.3473 63.3247 12.8789 64.0707 12.5406C64.8253 12.2023 65.684 12.0332 66.6468 12.0332C67.3407 12.0332 68.039 12.159 68.7415 12.4105C69.4441 12.6534 70.1467 13.009 70.8493 13.4774L69.6783 15.5201C68.6635 14.6787 67.6616 14.258 66.6728 14.258C66.0917 14.258 65.6233 14.3968 65.2677 14.6744C64.9207 14.9519 64.7472 15.3076 64.7472 15.7413C64.7472 16.0969 64.899 16.4005 65.2026 16.652C65.5062 16.9036 65.8835 17.1247 66.3345 17.3156C66.7856 17.5064 67.2366 17.6885 67.6877 17.862C68.3989 18.1222 69.0234 18.3998 69.5612 18.6947C70.099 18.9896 70.5197 19.3713 70.8232 19.8396C71.1268 20.308 71.2786 20.9325 71.2786 21.7132C71.2786 22.65 71.0531 23.4523 70.6021 24.1202C70.1597 24.7881 69.5265 25.2998 68.7025 25.6554C67.8785 26.0024 66.9027 26.1759 65.7751 26.1759Z" fill="black" fill-opacity="0.2"/>
<path d="M65.7751 26.1759C64.6562 26.1759 63.6587 25.9677 62.7826 25.5514C61.9152 25.1263 61.2083 24.5192 60.6619 23.7299L62.093 21.6221C62.6048 22.2987 63.1729 22.8234 63.7975 23.1964C64.4306 23.5694 65.0855 23.7559 65.7621 23.7559C66.1784 23.7559 66.5471 23.6821 66.868 23.5347C67.1889 23.3786 67.4448 23.1574 67.6356 22.8711C67.8264 22.5762 67.9219 22.2293 67.9219 21.8303C67.9219 21.4139 67.8134 21.0887 67.5966 20.8545C67.3797 20.6203 67.0545 20.4078 66.6208 20.217C66.1871 20.0261 65.6406 19.8006 64.9814 19.5404C64.4263 19.3062 63.8972 19.046 63.3941 18.7598C62.891 18.4735 62.4747 18.1136 62.1451 17.6799C61.8242 17.2375 61.6637 16.678 61.6637 16.0015C61.6637 15.2295 61.8762 14.5443 62.3012 13.9458C62.7349 13.3473 63.3247 12.8789 64.0707 12.5406C64.8253 12.2023 65.684 12.0332 66.6468 12.0332C67.3407 12.0332 68.039 12.159 68.7415 12.4105C69.4441 12.6534 70.1467 13.009 70.8493 13.4774L69.6783 15.5201C68.6635 14.6787 67.6616 14.258 66.6728 14.258C66.0917 14.258 65.6233 14.3968 65.2677 14.6744C64.9207 14.9519 64.7472 15.3076 64.7472 15.7413C64.7472 16.0969 64.899 16.4005 65.2026 16.652C65.5062 16.9036 65.8835 17.1247 66.3345 17.3156C66.7856 17.5064 67.2366 17.6885 67.6877 17.862C68.3989 18.1222 69.0234 18.3998 69.5612 18.6947C70.099 18.9896 70.5197 19.3713 70.8232 19.8396C71.1268 20.308 71.2786 20.9325 71.2786 21.7132C71.2786 22.65 71.0531 23.4523 70.6021 24.1202C70.1597 24.7881 69.5265 25.2998 68.7025 25.6554C67.8785 26.0024 66.9027 26.1759 65.7751 26.1759Z" fill="black" fill-opacity="0.2"/>
<path d="M65.7751 26.1759C64.6562 26.1759 63.6587 25.9677 62.7826 25.5514C61.9152 25.1263 61.2083 24.5192 60.6619 23.7299L62.093 21.6221C62.6048 22.2987 63.1729 22.8234 63.7975 23.1964C64.4306 23.5694 65.0855 23.7559 65.7621 23.7559C66.1784 23.7559 66.5471 23.6821 66.868 23.5347C67.1889 23.3786 67.4448 23.1574 67.6356 22.8711C67.8264 22.5762 67.9219 22.2293 67.9219 21.8303C67.9219 21.4139 67.8134 21.0887 67.5966 20.8545C67.3797 20.6203 67.0545 20.4078 66.6208 20.217C66.1871 20.0261 65.6406 19.8006 64.9814 19.5404C64.4263 19.3062 63.8972 19.046 63.3941 18.7598C62.891 18.4735 62.4747 18.1136 62.1451 17.6799C61.8242 17.2375 61.6637 16.678 61.6637 16.0015C61.6637 15.2295 61.8762 14.5443 62.3012 13.9458C62.7349 13.3473 63.3247 12.8789 64.0707 12.5406C64.8253 12.2023 65.684 12.0332 66.6468 12.0332C67.3407 12.0332 68.039 12.159 68.7415 12.4105C69.4441 12.6534 70.1467 13.009 70.8493 13.4774L69.6783 15.5201C68.6635 14.6787 67.6616 14.258 66.6728 14.258C66.0917 14.258 65.6233 14.3968 65.2677 14.6744C64.9207 14.9519 64.7472 15.3076 64.7472 15.7413C64.7472 16.0969 64.899 16.4005 65.2026 16.652C65.5062 16.9036 65.8835 17.1247 66.3345 17.3156C66.7856 17.5064 67.2366 17.6885 67.6877 17.862C68.3989 18.1222 69.0234 18.3998 69.5612 18.6947C70.099 18.9896 70.5197 19.3713 70.8232 19.8396C71.1268 20.308 71.2786 20.9325 71.2786 21.7132C71.2786 22.65 71.0531 23.4523 70.6021 24.1202C70.1597 24.7881 69.5265 25.2998 68.7025 25.6554C67.8785 26.0024 66.9027 26.1759 65.7751 26.1759Z" fill="black" fill-opacity="0.2"/>
<path d="M65.7751 26.1759C64.6562 26.1759 63.6587 25.9677 62.7826 25.5514C61.9152 25.1263 61.2083 24.5192 60.6619 23.7299L62.093 21.6221C62.6048 22.2987 63.1729 22.8234 63.7975 23.1964C64.4306 23.5694 65.0855 23.7559 65.7621 23.7559C66.1784 23.7559 66.5471 23.6821 66.868 23.5347C67.1889 23.3786 67.4448 23.1574 67.6356 22.8711C67.8264 22.5762 67.9219 22.2293 67.9219 21.8303C67.9219 21.4139 67.8134 21.0887 67.5966 20.8545C67.3797 20.6203 67.0545 20.4078 66.6208 20.217C66.1871 20.0261 65.6406 19.8006 64.9814 19.5404C64.4263 19.3062 63.8972 19.046 63.3941 18.7598C62.891 18.4735 62.4747 18.1136 62.1451 17.6799C61.8242 17.2375 61.6637 16.678 61.6637 16.0015C61.6637 15.2295 61.8762 14.5443 62.3012 13.9458C62.7349 13.3473 63.3247 12.8789 64.0707 12.5406C64.8253 12.2023 65.684 12.0332 66.6468 12.0332C67.3407 12.0332 68.039 12.159 68.7415 12.4105C69.4441 12.6534 70.1467 13.009 70.8493 13.4774L69.6783 15.5201C68.6635 14.6787 67.6616 14.258 66.6728 14.258C66.0917 14.258 65.6233 14.3968 65.2677 14.6744C64.9207 14.9519 64.7472 15.3076 64.7472 15.7413C64.7472 16.0969 64.899 16.4005 65.2026 16.652C65.5062 16.9036 65.8835 17.1247 66.3345 17.3156C66.7856 17.5064 67.2366 17.6885 67.6877 17.862C68.3989 18.1222 69.0234 18.3998 69.5612 18.6947C70.099 18.9896 70.5197 19.3713 70.8232 19.8396C71.1268 20.308 71.2786 20.9325 71.2786 21.7132C71.2786 22.65 71.0531 23.4523 70.6021 24.1202C70.1597 24.7881 69.5265 25.2998 68.7025 25.6554C67.8785 26.0024 66.9027 26.1759 65.7751 26.1759Z" fill="black" fill-opacity="0.2"/>
<path d="M65.7751 26.1759C64.6562 26.1759 63.6587 25.9677 62.7826 25.5514C61.9152 25.1263 61.2083 24.5192 60.6619 23.7299L62.093 21.6221C62.6048 22.2987 63.1729 22.8234 63.7975 23.1964C64.4306 23.5694 65.0855 23.7559 65.7621 23.7559C66.1784 23.7559 66.5471 23.6821 66.868 23.5347C67.1889 23.3786 67.4448 23.1574 67.6356 22.8711C67.8264 22.5762 67.9219 22.2293 67.9219 21.8303C67.9219 21.4139 67.8134 21.0887 67.5966 20.8545C67.3797 20.6203 67.0545 20.4078 66.6208 20.217C66.1871 20.0261 65.6406 19.8006 64.9814 19.5404C64.4263 19.3062 63.8972 19.046 63.3941 18.7598C62.891 18.4735 62.4747 18.1136 62.1451 17.6799C61.8242 17.2375 61.6637 16.678 61.6637 16.0015C61.6637 15.2295 61.8762 14.5443 62.3012 13.9458C62.7349 13.3473 63.3247 12.8789 64.0707 12.5406C64.8253 12.2023 65.684 12.0332 66.6468 12.0332C67.3407 12.0332 68.039 12.159 68.7415 12.4105C69.4441 12.6534 70.1467 13.009 70.8493 13.4774L69.6783 15.5201C68.6635 14.6787 67.6616 14.258 66.6728 14.258C66.0917 14.258 65.6233 14.3968 65.2677 14.6744C64.9207 14.9519 64.7472 15.3076 64.7472 15.7413C64.7472 16.0969 64.899 16.4005 65.2026 16.652C65.5062 16.9036 65.8835 17.1247 66.3345 17.3156C66.7856 17.5064 67.2366 17.6885 67.6877 17.862C68.3989 18.1222 69.0234 18.3998 69.5612 18.6947C70.099 18.9896 70.5197 19.3713 70.8232 19.8396C71.1268 20.308 71.2786 20.9325 71.2786 21.7132C71.2786 22.65 71.0531 23.4523 70.6021 24.1202C70.1597 24.7881 69.5265 25.2998 68.7025 25.6554C67.8785 26.0024 66.9027 26.1759 65.7751 26.1759Z" fill="black" fill-opacity="0.2"/>
<path d="M65.7751 26.1759C64.6562 26.1759 63.6587 25.9677 62.7826 25.5514C61.9152 25.1263 61.2083 24.5192 60.6619 23.7299L62.093 21.6221C62.6048 22.2987 63.1729 22.8234 63.7975 23.1964C64.4306 23.5694 65.0855 23.7559 65.7621 23.7559C66.1784 23.7559 66.5471 23.6821 66.868 23.5347C67.1889 23.3786 67.4448 23.1574 67.6356 22.8711C67.8264 22.5762 67.9219 22.2293 67.9219 21.8303C67.9219 21.4139 67.8134 21.0887 67.5966 20.8545C67.3797 20.6203 67.0545 20.4078 66.6208 20.217C66.1871 20.0261 65.6406 19.8006 64.9814 19.5404C64.4263 19.3062 63.8972 19.046 63.3941 18.7598C62.891 18.4735 62.4747 18.1136 62.1451 17.6799C61.8242 17.2375 61.6637 16.678 61.6637 16.0015C61.6637 15.2295 61.8762 14.5443 62.3012 13.9458C62.7349 13.3473 63.3247 12.8789 64.0707 12.5406C64.8253 12.2023 65.684 12.0332 66.6468 12.0332C67.3407 12.0332 68.039 12.159 68.7415 12.4105C69.4441 12.6534 70.1467 13.009 70.8493 13.4774L69.6783 15.5201C68.6635 14.6787 67.6616 14.258 66.6728 14.258C66.0917 14.258 65.6233 14.3968 65.2677 14.6744C64.9207 14.9519 64.7472 15.3076 64.7472 15.7413C64.7472 16.0969 64.899 16.4005 65.2026 16.652C65.5062 16.9036 65.8835 17.1247 66.3345 17.3156C66.7856 17.5064 67.2366 17.6885 67.6877 17.862C68.3989 18.1222 69.0234 18.3998 69.5612 18.6947C70.099 18.9896 70.5197 19.3713 70.8232 19.8396C71.1268 20.308 71.2786 20.9325 71.2786 21.7132C71.2786 22.65 71.0531 23.4523 70.6021 24.1202C70.1597 24.7881 69.5265 25.2998 68.7025 25.6554C67.8785 26.0024 66.9027 26.1759 65.7751 26.1759Z" fill="black" fill-opacity="0.2"/>
<path d="M65.7751 26.1759C64.6562 26.1759 63.6587 25.9677 62.7826 25.5514C61.9152 25.1263 61.2083 24.5192 60.6619 23.7299L62.093 21.6221C62.6048 22.2987 63.1729 22.8234 63.7975 23.1964C64.4306 23.5694 65.0855 23.7559 65.7621 23.7559C66.1784 23.7559 66.5471 23.6821 66.868 23.5347C67.1889 23.3786 67.4448 23.1574 67.6356 22.8711C67.8264 22.5762 67.9219 22.2293 67.9219 21.8303C67.9219 21.4139 67.8134 21.0887 67.5966 20.8545C67.3797 20.6203 67.0545 20.4078 66.6208 20.217C66.1871 20.0261 65.6406 19.8006 64.9814 19.5404C64.4263 19.3062 63.8972 19.046 63.3941 18.7598C62.891 18.4735 62.4747 18.1136 62.1451 17.6799C61.8242 17.2375 61.6637 16.678 61.6637 16.0015C61.6637 15.2295 61.8762 14.5443 62.3012 13.9458C62.7349 13.3473 63.3247 12.8789 64.0707 12.5406C64.8253 12.2023 65.684 12.0332 66.6468 12.0332C67.3407 12.0332 68.039 12.159 68.7415 12.4105C69.4441 12.6534 70.1467 13.009 70.8493 13.4774L69.6783 15.5201C68.6635 14.6787 67.6616 14.258 66.6728 14.258C66.0917 14.258 65.6233 14.3968 65.2677 14.6744C64.9207 14.9519 64.7472 15.3076 64.7472 15.7413C64.7472 16.0969 64.899 16.4005 65.2026 16.652C65.5062 16.9036 65.8835 17.1247 66.3345 17.3156C66.7856 17.5064 67.2366 17.6885 67.6877 17.862C68.3989 18.1222 69.0234 18.3998 69.5612 18.6947C70.099 18.9896 70.5197 19.3713 70.8232 19.8396C71.1268 20.308 71.2786 20.9325 71.2786 21.7132C71.2786 22.65 71.0531 23.4523 70.6021 24.1202C70.1597 24.7881 69.5265 25.2998 68.7025 25.6554C67.8785 26.0024 66.9027 26.1759 65.7751 26.1759Z" fill="black" fill-opacity="0.2"/>
<path d="M65.7751 26.1759C64.6562 26.1759 63.6587 25.9677 62.7826 25.5514C61.9152 25.1263 61.2083 24.5192 60.6619 23.7299L62.093 21.6221C62.6048 22.2987 63.1729 22.8234 63.7975 23.1964C64.4306 23.5694 65.0855 23.7559 65.7621 23.7559C66.1784 23.7559 66.5471 23.6821 66.868 23.5347C67.1889 23.3786 67.4448 23.1574 67.6356 22.8711C67.8264 22.5762 67.9219 22.2293 67.9219 21.8303C67.9219 21.4139 67.8134 21.0887 67.5966 20.8545C67.3797 20.6203 67.0545 20.4078 66.6208 20.217C66.1871 20.0261 65.6406 19.8006 64.9814 19.5404C64.4263 19.3062 63.8972 19.046 63.3941 18.7598C62.891 18.4735 62.4747 18.1136 62.1451 17.6799C61.8242 17.2375 61.6637 16.678 61.6637 16.0015C61.6637 15.2295 61.8762 14.5443 62.3012 13.9458C62.7349 13.3473 63.3247 12.8789 64.0707 12.5406C64.8253 12.2023 65.684 12.0332 66.6468 12.0332C67.3407 12.0332 68.039 12.159 68.7415 12.4105C69.4441 12.6534 70.1467 13.009 70.8493 13.4774L69.6783 15.5201C68.6635 14.6787 67.6616 14.258 66.6728 14.258C66.0917 14.258 65.6233 14.3968 65.2677 14.6744C64.9207 14.9519 64.7472 15.3076 64.7472 15.7413C64.7472 16.0969 64.899 16.4005 65.2026 16.652C65.5062 16.9036 65.8835 17.1247 66.3345 17.3156C66.7856 17.5064 67.2366 17.6885 67.6877 17.862C68.3989 18.1222 69.0234 18.3998 69.5612 18.6947C70.099 18.9896 70.5197 19.3713 70.8232 19.8396C71.1268 20.308 71.2786 20.9325 71.2786 21.7132C71.2786 22.65 71.0531 23.4523 70.6021 24.1202C70.1597 24.7881 69.5265 25.2998 68.7025 25.6554C67.8785 26.0024 66.9027 26.1759 65.7751 26.1759Z" fill="black" fill-opacity="0.2"/>
<path d="M39.3524 25.759L47.9005 4.29132H51.0621L59.6231 25.759H55.9541L53.8464 20.1644H45.1292L43.0084 25.759H39.3524ZM46.2871 17.1719H52.6884L49.4748 8.8711L46.2871 17.1719Z" fill="#00481D"/>
<path d="M39.3524 25.759L47.9005 4.29132H51.0621L59.6231 25.759H55.9541L53.8464 20.1644H45.1292L43.0084 25.759H39.3524ZM46.2871 17.1719H52.6884L49.4748 8.8711L46.2871 17.1719Z" fill="black" fill-opacity="0.2"/>
<path d="M39.3524 25.759L47.9005 4.29132H51.0621L59.6231 25.759H55.9541L53.8464 20.1644H45.1292L43.0084 25.759H39.3524ZM46.2871 17.1719H52.6884L49.4748 8.8711L46.2871 17.1719Z" fill="black" fill-opacity="0.2"/>
<path d="M39.3524 25.759L47.9005 4.29132H51.0621L59.6231 25.759H55.9541L53.8464 20.1644H45.1292L43.0084 25.759H39.3524ZM46.2871 17.1719H52.6884L49.4748 8.8711L46.2871 17.1719Z" fill="black" fill-opacity="0.2"/>
<path d="M39.3524 25.759L47.9005 4.29132H51.0621L59.6231 25.759H55.9541L53.8464 20.1644H45.1292L43.0084 25.759H39.3524ZM46.2871 17.1719H52.6884L49.4748 8.8711L46.2871 17.1719Z" fill="black" fill-opacity="0.2"/>
<path d="M39.3524 25.759L47.9005 4.29132H51.0621L59.6231 25.759H55.9541L53.8464 20.1644H45.1292L43.0084 25.759H39.3524ZM46.2871 17.1719H52.6884L49.4748 8.8711L46.2871 17.1719Z" fill="black" fill-opacity="0.2"/>
<path d="M39.3524 25.759L47.9005 4.29132H51.0621L59.6231 25.759H55.9541L53.8464 20.1644H45.1292L43.0084 25.759H39.3524ZM46.2871 17.1719H52.6884L49.4748 8.8711L46.2871 17.1719Z" fill="black" fill-opacity="0.2"/>
<path d="M39.3524 25.759L47.9005 4.29132H51.0621L59.6231 25.759H55.9541L53.8464 20.1644H45.1292L43.0084 25.759H39.3524ZM46.2871 17.1719H52.6884L49.4748 8.8711L46.2871 17.1719Z" fill="black" fill-opacity="0.2"/>
<path d="M39.3524 25.759L47.9005 4.29132H51.0621L59.6231 25.759H55.9541L53.8464 20.1644H45.1292L43.0084 25.759H39.3524ZM46.2871 17.1719H52.6884L49.4748 8.8711L46.2871 17.1719Z" fill="black" fill-opacity="0.2"/>
<path d="M39.3524 25.759L47.9005 4.29132H51.0621L59.6231 25.759H55.9541L53.8464 20.1644H45.1292L43.0084 25.759H39.3524ZM46.2871 17.1719H52.6884L49.4748 8.8711L46.2871 17.1719Z" fill="black" fill-opacity="0.2"/>
<path d="M39.3524 25.759L47.9005 4.29132H51.0621L59.6231 25.759H55.9541L53.8464 20.1644H45.1292L43.0084 25.759H39.3524ZM46.2871 17.1719H52.6884L49.4748 8.8711L46.2871 17.1719Z" fill="black" fill-opacity="0.2"/>
<defs>
<clipPath id="clip0_127_90">
<rect width="30.3524" height="30.3524" fill="white"/>
</clipPath>
</defs>
</svg>
